<?xml version="1.0" encoding="utf-8"?>
<!-- Generator: Adobe Illustrator 24.3.0, SVG Export Plug-In . SVG Version: 6.00 Build 0)  -->
<svg version="1.1" id="Layer_1" xmlns="http://www.w3.org/2000/svg" xmlns:xlink="http://www.w3.org/1999/xlink" x="0px" y="0px"
	 viewBox="0 0 21.1 28" style="enable-background:new 0 0 21.1 28;" xml:space="preserve">
<style type="text/css">
	.st0{fill:none;stroke:#FFFFFF;stroke-width:1.5;}
</style>
<path id="airdrop" class="st0" d="M12.9,1.2c0.1,0.7,0.2,1.3,0.3,2c0.5,1.6,1.3,3.1,2.4,4.4c1,1.2,2,2.5,2.9,3.9
	c2,3.3,2.5,6.8,0.8,10.3c-1.5,3.4-4.9,5.5-8.6,5.5c-5.4,0.1-9.9-4.2-9.9-9.6c0-2.5,0.9-4.9,2.5-6.7c0.6-0.6,1.2-1.2,1.9-1.7
	C5.3,9.1,5.5,9,5.7,9c0.1,1.9,0.6,3.4,2.3,4.4c0-0.2,0-0.3,0-0.4C8,10.3,8.4,7.7,9.4,5.3c0.6-1.5,1.6-2.8,2.9-3.7
	C12.6,1.5,12.7,1.4,12.9,1.2z M15.1,13.2c0,0-0.1,0-0.1,0c-0.2,0.3-0.3,0.5-0.5,0.8c-1.1,1.3-2.6,2.3-4.3,2.6
	c-1.8,0.3-3.2,1.9-3.2,3.8c0,2,1.7,3.6,3.7,3.6c0.1,0,0.1,0,0.2,0c1.8-0.1,3.4-1.4,4-3.1c0.7-1.8,0.8-3.8,0.6-5.7
	C15.3,14.5,15.1,13.9,15.1,13.2z"/>
</svg>
