<?xml version="1.0" encoding="utf-8"?>
<!-- Generator: Adobe Illustrator 24.3.0, SVG Export Plug-In . SVG Version: 6.00 Build 0)  -->
<svg version="1.1" id="Layer_1" xmlns="http://www.w3.org/2000/svg" xmlns:xlink="http://www.w3.org/1999/xlink" x="0px" y="0px"
	 viewBox="0 0 21.9 21.9" style="enable-background:new 0 0 21.9 21.9;" xml:space="preserve">
<style type="text/css">
	.st0{fill:#FAC548;}
</style>
<g id="Group_44" transform="translate(-930.446 -577.694)">
	<path id="Path_26" class="st0" d="M941.4,577.7c6.1,0,11,4.9,10.9,11s-4.9,11-11,10.9l0,0c-6.1,0-11-4.9-10.9-11
		S935.4,577.7,941.4,577.7z M941.4,597.7c5,0,9.1-4,9.1-9c0-5-4-9.1-9-9.1c-5,0-9.1,4-9.1,9c0,0,0,0,0,0
		C932.3,593.6,936.4,597.7,941.4,597.7C941.4,597.7,941.4,597.7,941.4,597.7L941.4,597.7z"/>
	<path id="Path_27" class="st0" d="M943,587.7c-0.5-0.5-1-1-1.4-1.4c-0.5-0.5-0.6-1.1-0.1-1.5c0.4-0.4,1-0.4,1.3,0
		c0,0,0.1,0.1,0.1,0.1c1,1,2,2,3.1,3c0.4,0.3,0.4,0.9,0.1,1.3c0,0-0.1,0.1-0.1,0.1c-1,1-2,2-3.1,3c-0.3,0.4-0.9,0.5-1.3,0.2
		c-0.4-0.3-0.5-0.9-0.2-1.3c0.1-0.1,0.1-0.1,0.2-0.2c0.4-0.4,0.9-0.9,1.4-1.4h-1.9c-1.2,0-2.4,0-3.6,0c-0.5,0.1-1-0.3-1.1-0.8
		c0,0,0-0.1,0-0.1c0-0.5,0.4-0.9,1-0.9c0,0,0.1,0,0.1,0C939.4,587.7,941.1,587.7,943,587.7z"/>
</g>
</svg>
