<svg xmlns="http://www.w3.org/2000/svg" width="25.479" height="20.693" viewBox="0 0 25.479 20.693">
  <path id="Icon_awesome-twitter" data-name="Icon awesome-twitter" d="M22.86,8.538c.016.226.016.453.016.679A14.755,14.755,0,0,1,8.019,24.074,14.757,14.757,0,0,1,0,21.73a10.8,10.8,0,0,0,1.261.065,10.458,10.458,0,0,0,6.483-2.231,5.231,5.231,0,0,1-4.882-3.621,6.586,6.586,0,0,0,.986.081,5.523,5.523,0,0,0,1.374-.178A5.222,5.222,0,0,1,1.035,10.72v-.065a5.259,5.259,0,0,0,2.36.663A5.229,5.229,0,0,1,1.778,4.335,14.843,14.843,0,0,0,12.546,9.8a5.9,5.9,0,0,1-.129-1.2A5.227,5.227,0,0,1,21.454,5.03a10.281,10.281,0,0,0,3.314-1.261,5.208,5.208,0,0,1-2.3,2.878,10.469,10.469,0,0,0,3.007-.808A11.225,11.225,0,0,1,22.86,8.538Z" transform="translate(0 -3.381)" fill="#fff"/>
</svg>
