<?xml version="1.0" encoding="utf-8"?>
<!-- Generator: Adobe Illustrator 24.3.0, SVG Export Plug-In . SVG Version: 6.00 Build 0)  -->
<svg version="1.1" id="Layer_1" xmlns="http://www.w3.org/2000/svg" xmlns:xlink="http://www.w3.org/1999/xlink" x="0px" y="0px"
	 viewBox="0 0 26.3 25.7" style="enable-background:new 0 0 26.3 25.7;" xml:space="preserve">
<style type="text/css">
	.st0{fill:#FAC548;}
</style>
<path id="Icon_awesome-arrow-down" class="st0" d="M11.2,23.9l1.3,1.3c0.5,0.6,1.4,0.6,2,0c0,0,0,0,0,0l11.4-11.4
	c0.6-0.5,0.6-1.4,0-2c0,0,0,0,0,0L14.5,0.4c-0.5-0.6-1.4-0.6-2,0c0,0,0,0,0,0l-1.3,1.3c-0.6,0.6-0.5,1.4,0,2c0,0,0,0,0,0l7.1,6.8
	H1.4c-0.8,0-1.4,0.6-1.4,1.4c0,0,0,0,0,0v1.9c0,0.8,0.6,1.4,1.4,1.4c0,0,0,0,0,0h16.9l-7.1,6.7C10.7,22.5,10.6,23.3,11.2,23.9
	C11.2,23.9,11.2,23.9,11.2,23.9z"/>
</svg>
