<svg xmlns="http://www.w3.org/2000/svg" width="24.275" height="17.068" viewBox="0 0 24.275 17.068">
  <path id="Icon_awesome-youtube" data-name="Icon awesome-youtube" d="M24.818,7.171a3.05,3.05,0,0,0-2.146-2.16C20.778,4.5,13.187,4.5,13.187,4.5S5.6,4.5,3.7,5.011a3.05,3.05,0,0,0-2.146,2.16,32,32,0,0,0-.507,5.881,32,32,0,0,0,.507,5.881A3,3,0,0,0,3.7,21.057c1.893.511,9.484.511,9.484.511s7.591,0,9.484-.511a3,3,0,0,0,2.146-2.126,32,32,0,0,0,.507-5.881,32,32,0,0,0-.507-5.881ZM10.7,16.66V9.442l6.345,3.609L10.7,16.66Z" transform="translate(-1.05 -4.5)" fill="#fff"/>
</svg>
