<?xml version="1.0" encoding="utf-8"?>
<!-- Generator: Adobe Illustrator 24.3.0, SVG Export Plug-In . SVG Version: 6.00 Build 0)  -->
<svg version="1.1" id="Layer_1" xmlns="http://www.w3.org/2000/svg" xmlns:xlink="http://www.w3.org/1999/xlink" x="0px" y="0px"
	 viewBox="0 0 26.3 25.7" style="enable-background:new 0 0 26.3 25.7;" xml:space="preserve">
<style type="text/css">
	.st0{fill:#FAC548;}
</style>
<path id="Icon_awesome-arrow-down" class="st0" d="M15.1,23.9l-1.3,1.3c-0.5,0.6-1.4,0.6-2,0c0,0,0,0,0,0L0.4,13.8
	c-0.6-0.5-0.6-1.4,0-2c0,0,0,0,0,0L11.8,0.4c0.5-0.6,1.4-0.6,2,0c0,0,0,0,0,0l1.3,1.3c0.6,0.6,0.5,1.4,0,2c0,0,0,0,0,0L8,10.5h16.9
	c0.8,0,1.4,0.6,1.4,1.4c0,0,0,0,0,0v1.9c0,0.8-0.6,1.4-1.4,1.4c0,0,0,0,0,0H8l7.1,6.7C15.7,22.5,15.7,23.3,15.1,23.9
	C15.2,23.9,15.1,23.9,15.1,23.9z"/>
</svg>
