<?xml version="1.0" encoding="utf-8"?>
<!-- Generator: Adobe Illustrator 24.3.0, SVG Export Plug-In . SVG Version: 6.00 Build 0)  -->
<svg version="1.1" id="Layer_1" xmlns="http://www.w3.org/2000/svg" xmlns:xlink="http://www.w3.org/1999/xlink" x="0px" y="0px"
	 viewBox="0 0 19.4 21" style="enable-background:new 0 0 19.4 21;" xml:space="preserve">
<style type="text/css">
	.st0{fill:#FAC548;}
</style>
<g id="Group_50" transform="translate(-712.333 -386.384)">
	<path id="Path_1" class="st0" d="M712.3,389.8C712.3,389.7,712.4,389.7,712.3,389.8c0.1-0.7,0.4-1.3,0.9-1.8c0.5-0.5,1-1,1.7-1.4
		c0.5-0.3,1-0.3,1.5-0.1c0.4,0.2,0.8,0.4,1.2,0.7c0.2,0.2,0.3,0.4,0.4,0.6c0.4,1,0.6,2,0.8,3.1c0.1,0.3,0.1,0.6,0.1,0.9
		c0.1,0.4,0,0.7-0.3,1c-0.2,0.3-0.5,0.6-0.8,0.8c-0.3,0.3-0.6,0.5-0.9,0.8c-0.1,0.1-0.1,0.2-0.1,0.3c0.4,0.9,0.8,1.8,1.4,2.6
		c1.3,2,3.1,3.6,5.1,4.9c0.4,0.2,0.4,0.2,0.7-0.1c0.5-0.4,0.9-0.8,1.4-1.1c0.4-0.3,1-0.4,1.5-0.3c1.2,0.3,2.4,0.8,3.6,1.3
		c0.3,0.2,0.6,0.4,0.7,0.8c0.2,0.4,0.3,0.8,0.4,1.3c0,0.4,0,0.7-0.3,1c-0.6,0.9-1.4,1.6-2.4,2.1c-0.3,0.1-0.6,0.2-0.9,0.2
		c-1.5,0-3-0.3-4.4-0.9c-3.9-1.5-7.2-4.3-9.1-8c-1.1-1.9-1.8-4-2.1-6.2c-0.1-0.4-0.1-0.8-0.1-1.3V389.8z"/>
</g>
</svg>
