<?xml version="1.0" encoding="utf-8"?>
<!-- Generator: Adobe Illustrator 24.3.0, SVG Export Plug-In . SVG Version: 6.00 Build 0)  -->
<svg version="1.1" id="Layer_1" xmlns="http://www.w3.org/2000/svg" xmlns:xlink="http://www.w3.org/1999/xlink" x="0px" y="0px"
	 viewBox="0 0 19.2 22.4" style="enable-background:new 0 0 19.2 22.4;" xml:space="preserve">
<style type="text/css">
	.st0{fill:#FFFFFF;}
</style>
<g id="Group_83" transform="translate(-1081 -21)">
	<g id="Group_3" transform="translate(999.176 -4.187)">
		<path id="Path_44" class="st0" d="M91.2,47.6c-1.2-0.3-2.3-0.9-3.3-1.6c-2.8-1.9-4.8-4.7-5.6-8c-0.3-1.2-0.5-2.5-0.5-3.8
			c0-1.5,0-3,0-4.5c0-0.5,0.1-0.6,0.5-0.7c3-0.8,5.9-2.1,8.6-3.6c0.3-0.2,0.7-0.2,0.9,0c2.7,1.6,5.6,2.8,8.6,3.6
			c0.4,0.1,0.5,0.2,0.5,0.7c0,1.7,0,3.5,0,5.2c0,2.5-0.7,4.9-2.1,6.9c-1.3,2.1-3.1,3.8-5.2,5c-0.6,0.4-1.3,0.7-2.1,0.8L91.2,47.6z
			 M82.8,32.6L82.8,32.6c0,1.1,0,2.2,0.1,3.2c0.1,1.7,0.6,3.3,1.5,4.8c1.3,2.5,3.4,4.4,5.9,5.7c0.7,0.5,1.6,0.5,2.3,0
			c0,0,0.1,0,0.1-0.1c1.8-0.9,3.4-2.2,4.6-3.8c1.6-2.1,2.6-4.6,2.7-7.2c0.1-1.8,0-3.5,0.1-5.3c0-0.1-0.1-0.2-0.1-0.2c0,0,0,0,0,0
			c-0.4-0.1-0.7-0.2-1.1-0.3c-2.5-0.8-4.9-1.9-7.2-3.2c-0.1-0.1-0.2-0.1-0.4,0c-2.6,1.5-5.4,2.7-8.3,3.5c-0.1,0-0.2,0.1-0.2,0.2
			c0,0,0,0,0,0C82.8,30.9,82.8,31.8,82.8,32.6z"/>
		<path id="Path_45" class="st0" d="M89.9,37.2c0.1-0.1,0.1-0.2,0.2-0.3c1.5-1.5,3-3,4.4-4.4c0.4-0.5,1.1-0.7,1.7-0.4
			c0.8,0.3,1.2,1.2,0.9,2c-0.1,0.1-0.1,0.3-0.2,0.4c-0.1,0.1-0.1,0.2-0.2,0.2c-1.9,1.9-3.8,3.8-5.7,5.7c-0.5,0.6-1.3,0.7-2,0.3
			c-0.1-0.1-0.2-0.2-0.3-0.3c-0.9-0.9-1.8-1.8-2.7-2.7c-0.6-0.6-0.7-1.5-0.1-2.2c0.1-0.1,0.1-0.1,0.2-0.2c0.6-0.5,1.4-0.4,1.9,0
			c0.6,0.5,1.1,1.1,1.6,1.6C89.8,37,89.8,37.1,89.9,37.2z M96.3,33.6c0-0.3-0.1-0.6-0.4-0.7c-0.2-0.1-0.5,0-0.7,0.2
			c-1.6,1.6-3.2,3.2-4.9,4.9c-0.3,0.3-0.6,0.3-0.9,0c-0.6-0.6-1.2-1.2-1.9-1.8c-0.1-0.1-0.2-0.2-0.3-0.2c-0.3-0.1-0.5,0-0.7,0.3
			c-0.1,0.2-0.1,0.6,0.1,0.7c0.9,0.9,1.8,1.8,2.7,2.7c0.2,0.3,0.6,0.3,0.9,0.1c0.1,0,0.1-0.1,0.1-0.1l3-3c0.9-0.9,1.8-1.8,2.7-2.7
			C96.1,33.8,96.2,33.7,96.3,33.6L96.3,33.6z"/>
		<path id="Path_46" class="st0" d="M83.7,31.8c0-0.3,0-0.6,0-0.8c0-0.3,0.1-0.5,0.4-0.5c0.8-0.3,1.6-0.6,2.5-0.9
			c0.2-0.1,0.5,0,0.7,0.2c0,0,0,0,0,0c0.1,0.2,0,0.5-0.3,0.6c0,0,0,0-0.1,0c-0.7,0.3-1.4,0.5-2.1,0.7c-0.1,0-0.2,0.1-0.2,0.3
			c0,0.4,0,0.8,0,1.2c0,0.3-0.1,0.5-0.4,0.5c-0.3,0-0.5-0.1-0.5-0.4c0,0,0-0.1,0-0.1C83.7,32.4,83.7,32.1,83.7,31.8z"/>
		<path id="Path_47" class="st0" d="M97.3,40.8c-0.1,0.1-0.1,0.3-0.2,0.4c-0.8,1.1-1.7,2.2-2.8,3c-0.2,0.2-0.5,0.2-0.7,0
			c0,0,0,0,0,0c-0.2-0.2-0.1-0.5,0.1-0.7c0,0,0,0,0,0c0.5-0.5,1.1-1,1.6-1.5c0.4-0.4,0.7-0.9,1-1.3c0.2-0.3,0.5-0.4,0.7-0.2
			C97.2,40.5,97.2,40.6,97.3,40.8z"/>
		<path id="Path_48" class="st0" d="M92.3,44.6c0-0.3,0.2-0.5,0.5-0.5c0,0,0,0,0,0c0.3,0,0.5,0.2,0.5,0.5c0,0.3-0.2,0.5-0.5,0.5
			C92.5,45.1,92.3,44.9,92.3,44.6C92.3,44.6,92.3,44.6,92.3,44.6z"/>
		<path id="Path_49" class="st0" d="M88.1,28.9c0.3,0,0.5,0.2,0.5,0.5c0,0.3-0.2,0.5-0.5,0.5c-0.3,0-0.5-0.2-0.5-0.5
			C87.7,29.1,87.9,28.9,88.1,28.9z"/>
	</g>
</g>
</svg>
