<?xml version="1.0" encoding="utf-8"?>
<!-- Generator: Adobe Illustrator 24.3.0, SVG Export Plug-In . SVG Version: 6.00 Build 0)  -->
<svg version="1.1" id="Layer_1" xmlns="http://www.w3.org/2000/svg" xmlns:xlink="http://www.w3.org/1999/xlink" x="0px" y="0px"
	 viewBox="0 0 123.4 116.4" style="enable-background:new 0 0 123.4 116.4;" xml:space="preserve">
<style type="text/css">
	.st0{fill:#FAC548;}
</style>
<circle id="Ellipse_397" class="st0" cx="41" cy="41" r="41"/>
<g id="Group_1177" transform="translate(-468.192 3295.457)">
	<path id="Path_6477" d="M539.7-3285.6h1.2c2,1.2,4,2.6,5.9,4.1c4.1,3.3,6.5,8.4,6.3,13.7c0,1.9,0,3.9,0,5.8c0,0.7,0.2,1.4,0.8,1.8
		c3.7,3.7,7.4,7.4,11.1,11.2c0.5,0.5,0.8,1.1,0.9,1.8c0.1,4.3,0.1,8.6,0,12.9c0,1.1-0.9,2-2,2c-0.1,0-0.3,0-0.4,0
		c-3.5-0.6-6.9-1.2-10.4-1.7c-1.4-0.2-2.9-0.3-4.3-0.4l-0.1,0.3c1.2,1.5,2.5,3.1,3.7,4.6c0.7,0.7,0.9,1.7,0.5,2.5
		c-0.4,0.8-1.2,1.3-2.1,1.2c-0.7,0-1.4,0-2.2,0l0.3,2.2c2.6,0.1,5,1,7,2.7c4.9-4.6,7.1-5.2,14.4-4.1c0.5-3.7,3-6.9,6.4-8.3
		c3.7-1.6,7.2-1,10.6,1.2c0-0.2,0.1-0.3,0.1-0.5c0-8.6,0-17.2,0-25.8c0-1.2-0.3-1.5-1.6-1.5c-7.5,0-14.9,0-22.4,0h-1.5v-4.2h1.6h7.9
		c4.9,0,9.9,0,14.8,0c2.5-0.2,4.7,1.5,5.2,4c0.1,0.2,0.1,0.3,0.2,0.5v63.5c-1,3.5-3.4,4.5-6.8,4.5c-8.6-0.2-17.2-0.1-25.7,0
		c-0.5,0-1,0-1.6,0.1v6.5c0,2.1,0,2.1,2.1,2.1h6.3v4.1h-51c0-1.1,0-2.1,0-3.1c0-0.8,0.2-1,1-1c2.2,0,4.3,0,6.5,0
		c0.8,0,1.1-0.2,1.1-1c-0.1-2.1,0-4.2,0-6.4c0-1.3,0-1.3-1.4-1.3c-8.9,0-17.7,0-26.6,0c-0.7,0-1.5,0-2.2-0.2c-2.7-0.7-4-2.7-4-6
		c0-20.1,0-40.1,0-60.2c-0.2-3.1,2.2-5.8,5.3-6c0.2,0,0.4,0,0.6,0c3.2,0.1,6.4,0,9.6,0c4.4,0,8.8,0,13.2,0c0.3,0,1,0.3,1,0.5
		c0.1,1.2,0,2.3,0,3.6h-1.8c-7.3,0-14.7,0-22,0c-1.6,0-1.9,0.3-1.9,1.9c0,8.2,0,16.5,0,24.7v1.2c4.9-3.5,11.6-2.4,15.1,2.4
		c1,1.4,1.7,3,1.9,4.8c5.6-1.7,10.4-0.2,14.4,4.1c1.9-1.7,4.4-2.7,7-2.8l0.3-2.1c-0.4,0-0.8-0.1-1.1-0.1c-1.2,0-2.4,0.1-3-1.3
		c-0.6-1.3,0.2-2.2,1-3c1.1-1.3,2.2-2.6,3.4-4.1c-1.1-0.1-2.1-0.1-3.2,0c-3.8,0.6-7.7,1.2-11.5,1.9c-1.9,0.3-2.8-0.4-2.8-2.4
		c0-4,0-7.9,0-11.9c0-0.9,0.3-1.7,1-2.3c3.7-3.7,7.4-7.4,11.1-11.1c0.4-0.4,0.6-1,0.7-1.6c0.1-2.3-0.1-4.7,0.1-7
		c0.1-1.8,0.4-3.6,1-5.4c1.8-5,5.5-8.3,10-10.9C539-3285.1,539.3-3285.4,539.7-3285.6z M493.4-3208.7h65.3h27.4
		c0.6,0,1.3,0.1,1.2-0.9c0-4.8,0.1-9.5,0-14.3c0-2.6-1.5-4.9-3.9-5.8c-3.3-1.4-7,0.1-8.4,3.3c-0.6,1.4-0.7,3-0.2,4.4
		c0.3,0.9,0,1.9-0.8,2.4c-0.8,0.6-1.9,0.5-2.6-0.2c-3.7-3-9.1-2.5-12.1,1.2c-0.4,0.5-0.8,1.1-1.1,1.7c-1,1.9-2.7,2-4,0.2
		c-1.5-2.4-4.5-3.5-7.2-2.6c-0.8,0.3-1.8,0.2-2.4-0.5c-0.6-0.7-0.7-1.7-0.3-2.5c0.2-0.9,0.2-1.8,0.1-2.7c-0.1-0.6-0.5-1-1.2-0.9
		c-1.6,0.1-3.3,0-4.9,0c-1.8,0-2.3,0.5-2.2,2.3c0,0.5,0.1,1,0.3,1.4c0.6,1,0.2,2.3-0.8,2.9c-0.6,0.3-1.3,0.4-1.9,0.1
		c-2.7-0.8-5.6,0.2-7.1,2.6c-1.3,1.9-3,1.8-4-0.2c-2-4.2-7-6-11.3-4c-0.6,0.3-1.2,0.6-1.7,1.1c-0.7,0.7-1.9,0.9-2.8,0.3
		c-0.8-0.6-1.1-1.7-0.7-2.6c0.9-3.4-1.1-6.9-4.5-7.8c-3.4-0.9-6.9,1.1-7.8,4.5c-0.1,0.5-0.2,1.1-0.2,1.6c0,4.7,0,9.4,0,14.1
		C493.4-3209.4,493.4-3209.1,493.4-3208.7L493.4-3208.7z M493.4-3204.6c0,2.4,0,4.6,0,6.9c0,1.4,0.3,1.7,1.7,1.7
		c30.2,0,60.5,0,90.7,0c1.2,0,1.5-0.3,1.5-1.5c0-1.8,0-3.6,0-5.4c0-1.9,0.2-1.7-1.7-1.7c-28.3,0-56.5,0-84.8,0H493.4z M548.9-3238.7
		c0-0.4,0.1-0.7,0.1-1c0-9.6,0-19.2,0-28.8c0-0.7,0-1.5-0.2-2.2c-0.9-4.8-4-7.9-8-10.3c-0.3-0.1-0.6-0.1-0.8,0
		c-4.8,3-8.2,6.9-8.2,13c0,9.3,0,18.7,0,28v1.2L548.9-3238.7z M527.6-3183.2c0.2,0.1,0.4,0.1,0.5,0.1c8.1,0,16.2,0,24.3,0
		c0.7,0,0.8-0.3,0.8-0.9c0-2.2-0.1-4.4,0-6.7c0-0.9-0.3-1.2-1.2-1.2c-7.8,0-15.5,0-23.3,0c-0.4,0-0.7,0-1.2,0.1L527.6-3183.2z
		 M553.3-3255c-0.1,0.2-0.2,0.5-0.2,0.7c0,5.1,0,10.3,0,15.4c0,0.6,0.4,0.7,0.8,0.8c1.4,0.2,2.7,0.5,4.1,0.7
		c1.2,0.2,2.4,0.4,3.7,0.6c0-3.2,0-6.1,0-9.1c-0.1-0.4-0.3-0.7-0.6-0.9c-2-2-4-4-5.9-6C554.6-3253.5,554.1-3254.2,553.3-3255
		L553.3-3255z M527.6-3254.7c-0.1,0.1-0.3,0.1-0.4,0.2c-2.6,2.6-5.2,5.2-7.8,7.8c-0.2,0.3-0.4,0.7-0.4,1.1c0,1.8,0,3.5,0,5.3
		c0,1.1,0,2.2,0,3.4l8.6-1.4L527.6-3254.7z M534.3-3230.1h12.3c-1.2-1.5-2.3-2.8-3.4-4c-0.2-0.2-0.5-0.2-0.8-0.2c-1.3,0-2.7,0-4,0
		c-0.3,0-0.6,0.1-0.8,0.3C536.6-3232.9,535.5-3231.6,534.3-3230.1L534.3-3230.1z"/>
	<path id="Path_6478" d="M540.4-3268.5c2.3,0,4.2,1.9,4.2,4.2c0,2.3-1.9,4.2-4.2,4.2c-2.3,0-4.2-1.9-4.2-4.2c0,0,0-0.1,0-0.1
		C536.2-3266.7,538.1-3268.5,540.4-3268.5z"/>
</g>
</svg>
