<?xml version="1.0" encoding="utf-8"?>
<!-- Generator: Adobe Illustrator 24.3.0, SVG Export Plug-In . SVG Version: 6.00 Build 0)  -->
<svg version="1.1" id="Layer_1" xmlns="http://www.w3.org/2000/svg" xmlns:xlink="http://www.w3.org/1999/xlink" x="0px" y="0px"
	 viewBox="0 0 29.4 25.8" style="enable-background:new 0 0 29.4 25.8;" xml:space="preserve">
<style type="text/css">
	.st0{fill:#E2B441;}
</style>
<g id="comment_prof" transform="translate(-58.361 -155.203)">
	<path id="Path_101" class="st0" d="M87.8,169.8c-0.1,0.5-0.2,1-0.3,1.5c-0.3,1.1-0.7,2.2-1.4,3.2c-0.1,0.1-0.1,0.3-0.1,0.5
		c0.5,1.6,1.1,3.3,1.6,4.9c0.2,0.4,0,0.9-0.5,1.1c-0.1,0.1-0.3,0.1-0.4,0.1c-0.2,0-0.3-0.1-0.4-0.1c-1.6-0.8-3.1-1.6-4.7-2.4
		c-0.2-0.1-0.4-0.1-0.6,0c-3.6,1.5-7.7,1.1-10.9-1.1c-0.6-0.4-1.2-0.9-1.8-1.4c-0.1-0.1-0.2-0.2-0.4-0.2c-1-0.1-1.9-0.4-2.8-0.8
		c-0.2-0.1-0.4-0.1-0.5,0c-1.6,0.8-3.1,1.6-4.7,2.4c-0.3,0.2-0.7,0.2-1,0c-0.4-0.2-0.5-0.7-0.3-1.1c0.5-1.6,1-3.3,1.6-4.9
		c0.1-0.1,0-0.3-0.1-0.4c-2.7-3.9-2.1-9.3,1.3-12.5c1.9-1.9,4.4-3,7.1-3.2c3.3-0.3,6.5,0.7,9,3c0.4,0.3,0.8,0.6,1.3,0.6
		c2.9,0.5,5.5,2.1,7.2,4.5c1,1.4,1.6,2.9,1.8,4.6c0,0.1,0,0.1,0.1,0.2L87.8,169.8z M85.3,178.4c0-0.1,0-0.2-0.1-0.2
		c-0.3-1.1-0.7-2.1-1-3.2c-0.2-0.4-0.1-0.9,0.2-1.2c1.3-1.6,1.8-3.7,1.6-5.7c-0.2-2-1.3-3.9-2.8-5.2c-2.2-1.9-5.1-2.8-7.9-2.3
		c-2.4,0.3-4.7,1.5-6.2,3.4c-1.6,1.8-2.2,4.2-1.8,6.6c0.4,2.5,2,4.6,4.2,5.8c2.8,1.7,6.3,1.9,9.3,0.5c0.4-0.2,0.8-0.2,1.2,0
		c1,0.5,1.9,1,2.9,1.5C85,178.3,85.1,178.3,85.3,178.4z M75.2,158.6c-0.1,0-0.1-0.1-0.2-0.2c-3.4-2.1-7.7-2.1-11.1,0.2
		c-2.2,1.4-3.7,3.8-3.8,6.5c-0.1,1.9,0.5,3.7,1.6,5.2c0.3,0.3,0.3,0.8,0.2,1.1c-0.3,1-0.7,2.1-1,3.1c0,0.1-0.1,0.2-0.1,0.4
		c0.2-0.1,0.3-0.1,0.4-0.2c1-0.5,2-1,2.9-1.5c0.4-0.3,0.9-0.3,1.4,0c0.4,0.2,0.7,0.3,1.1,0.4c-0.1-0.2-0.1-0.2-0.2-0.3
		c-1.4-2.6-1.4-5.7-0.2-8.4c1.2-2.7,3.6-4.8,6.4-5.7C73.5,159,74.4,158.9,75.2,158.6z"/>
	<path id="Path_102" class="st0" d="M73,169.8c-0.5,0-0.8-0.4-0.8-0.9c0-0.5,0.4-0.8,0.9-0.8c0.5,0,0.8,0.4,0.8,0.9
		C73.9,169.5,73.5,169.8,73,169.8C73,169.8,73,169.8,73,169.8z"/>
	<path id="Path_103" class="st0" d="M76.5,169.8c-0.5,0-0.9-0.4-0.8-0.9c0-0.5,0.4-0.9,0.9-0.8c0.5,0,0.8,0.4,0.8,0.9
		C77.4,169.4,77,169.8,76.5,169.8C76.5,169.8,76.5,169.8,76.5,169.8z"/>
	<path id="Path_104" class="st0" d="M79.9,168.1c0.5,0,0.9,0.4,0.9,0.9c0,0.5-0.4,0.9-0.9,0.9s-0.9-0.4-0.9-0.9c0,0,0,0,0,0
		C79.1,168.5,79.5,168.1,79.9,168.1z"/>
</g>
</svg>
