<?xml version="1.0" encoding="utf-8"?>
<!-- Generator: Adobe Illustrator 24.3.0, SVG Export Plug-In . SVG Version: 6.00 Build 0)  -->
<svg version="1.1" id="Layer_1" xmlns="http://www.w3.org/2000/svg" xmlns:xlink="http://www.w3.org/1999/xlink" x="0px" y="0px"
	 viewBox="0 0 22.3 22.4" style="enable-background:new 0 0 22.3 22.4;" xml:space="preserve">
<style type="text/css">
	.st0{fill:#FFFFFF;}
</style>
<g id="Group_82" transform="translate(-974 -21)">
	<g id="Group_81">
		<g id="Group_2" transform="translate(818.43 -483.18)">
			<path id="Path_17" class="st0" d="M161.3,504.2h10.9c0.3,0.1,0.5,0.5,0.5,0.8c0,1.4,0,2.8,0,4.2v0.2h4.5c0.4-0.1,0.7,0.2,0.8,0.6
				c0,0.1,0,0.1,0,0.2c0,5.2,0,10.5,0,15.7c0,0.4-0.2,0.7-0.6,0.7c-0.1,0-0.1,0-0.2,0h-20.9c-0.4,0-0.7-0.2-0.7-0.6
				c0-0.1,0-0.1,0-0.2c0-5.2,0-10.5,0-15.7c-0.1-0.4,0.2-0.7,0.6-0.7c0.1,0,0.1,0,0.2,0h4.5v-0.3c0-1.4,0-2.8,0-4.2
				C160.8,504.7,161,504.3,161.3,504.2z M163.5,525.3c0-0.7,0-1.3,0-2c0-0.4,0.2-0.7,0.6-0.7c0,0,0.1,0,0.1,0h5.1
				c0.4,0,0.7,0.2,0.7,0.6c0,0,0,0.1,0,0.1c0,0.6,0,1.2,0,1.8v0.2h1.3v-19.8h-9.2v19.8H163.5z M160.8,525.3v-14.5h-3.9v14.5h1.3
				c0-0.7,0-1.4,0-2c0-0.4,0.3-0.7,0.7-0.7s0.7,0.3,0.7,0.7c0,0.4,0,0.7,0,1.1c0,0.3,0,0.6,0,0.9L160.8,525.3z M172.7,510.8v14.5
				h1.3v-1.4c0-1,0.1-1.3,0.7-1.3s0.7,0.3,0.7,1.3c0,0.4,0,0.8,0,1.2c0,0.1,0,0.1,0,0.2h1.3v-14.5L172.7,510.8z M164.8,523.9v1.4
				h1.3v-1.4H164.8z M168.7,525.3v-1.4h-1.3v1.4L168.7,525.3z"/>
			<path id="Path_18" class="st0" d="M164.1,506.8c0.4,0,0.7,0.3,0.6,0.7c0,0.4-0.3,0.7-0.7,0.6c-0.4,0-0.7-0.3-0.6-0.7c0,0,0,0,0,0
				C163.5,507.1,163.8,506.8,164.1,506.8C164.1,506.8,164.1,506.8,164.1,506.8z"/>
			<path id="Path_19" class="st0" d="M167.4,507.5c0,0.4-0.3,0.7-0.7,0.7c-0.4,0-0.7-0.3-0.7-0.7s0.3-0.7,0.7-0.7c0,0,0,0,0,0
				C167.1,506.8,167.4,507.1,167.4,507.5z"/>
			<path id="Path_20" class="st0" d="M170,507.5c0,0.4-0.3,0.7-0.7,0.6c-0.4,0-0.7-0.3-0.6-0.7c0-0.4,0.3-0.7,0.7-0.6c0,0,0,0,0,0
				C169.7,506.8,170,507.1,170,507.5C170,507.5,170,507.5,170,507.5z"/>
			<path id="Path_21" class="st0" d="M163.5,510.1c0-0.4,0.3-0.7,0.7-0.7s0.7,0.3,0.7,0.7c0,0.4-0.3,0.7-0.7,0.7c0,0,0,0,0,0
				C163.7,510.7,163.5,510.5,163.5,510.1C163.5,510.1,163.5,510.1,163.5,510.1z"/>
			<path id="Path_22" class="st0" d="M166.7,510.8c-0.4,0-0.7-0.3-0.7-0.7c0-0.4,0.3-0.7,0.7-0.7c0.4,0,0.7,0.3,0.7,0.7c0,0,0,0,0,0
				C167.4,510.5,167.1,510.8,166.7,510.8z"/>
			<path id="Path_23" class="st0" d="M169.4,510.8c-0.4,0-0.7-0.3-0.7-0.7c0-0.4,0.3-0.7,0.7-0.7c0.4,0,0.7,0.3,0.7,0.7c0,0,0,0,0,0
				C170,510.5,169.7,510.8,169.4,510.8L169.4,510.8z"/>
			<path id="Path_24" class="st0" d="M164.1,513.4c-0.4,0-0.7-0.3-0.7-0.7c0-0.4,0.3-0.7,0.7-0.7c0.4,0,0.7,0.3,0.7,0.7c0,0,0,0,0,0
				C164.8,513.1,164.5,513.4,164.1,513.4C164.1,513.4,164.1,513.4,164.1,513.4z"/>
			<path id="Path_25" class="st0" d="M167.4,512.7c0,0.4-0.3,0.7-0.7,0.7s-0.7-0.3-0.7-0.7c0-0.4,0.3-0.7,0.7-0.7c0,0,0,0,0,0
				C167.1,512.1,167.4,512.4,167.4,512.7z"/>
			<path id="Path_26" class="st0" d="M170,512.7c0,0.4-0.3,0.7-0.6,0.7c-0.4,0-0.7-0.3-0.7-0.6s0.3-0.7,0.6-0.7c0,0,0,0,0,0
				C169.7,512.1,170,512.4,170,512.7C170,512.7,170,512.7,170,512.7z"/>
			<path id="Path_27" class="st0" d="M169.4,514.7c0.4,0,0.7,0.3,0.6,0.7c0,0.4-0.3,0.7-0.7,0.6c-0.4,0-0.7-0.3-0.6-0.7c0,0,0,0,0,0
				C168.7,515,169,514.7,169.4,514.7C169.4,514.7,169.4,514.7,169.4,514.7z"/>
			<path id="Path_28" class="st0" d="M164.1,518.6c-0.4,0-0.7-0.3-0.7-0.7c0-0.4,0.3-0.7,0.7-0.7c0.4,0,0.7,0.3,0.7,0.7c0,0,0,0,0,0
				C164.8,518.4,164.5,518.6,164.1,518.6C164.1,518.6,164.1,518.6,164.1,518.6z"/>
			<path id="Path_29" class="st0" d="M166.8,517.3c0.4,0,0.6,0.3,0.6,0.7c0,0.4-0.3,0.6-0.7,0.6s-0.6-0.3-0.6-0.7c0,0,0,0,0,0
				C166.1,517.6,166.4,517.3,166.8,517.3z"/>
			<path id="Path_30" class="st0" d="M170,518c0,0.4-0.3,0.7-0.6,0.7s-0.7-0.3-0.7-0.6c0-0.4,0.3-0.7,0.6-0.7c0,0,0,0,0,0
				C169.7,517.3,170,517.6,170,518z"/>
			<path id="Path_31" class="st0" d="M164.1,520c0.4,0,0.7,0.3,0.6,0.7c0,0.4-0.3,0.7-0.7,0.6c-0.4,0-0.7-0.3-0.6-0.7c0,0,0,0,0,0
				C163.5,520.2,163.8,519.9,164.1,520C164.1,520,164.1,520,164.1,520z"/>
			<path id="Path_32" class="st0" d="M166.8,520c0.4,0,0.7,0.3,0.6,0.7c0,0.4-0.3,0.7-0.7,0.6c-0.4,0-0.7-0.3-0.6-0.7c0,0,0,0,0,0
				C166.1,520.2,166.4,519.9,166.8,520C166.7,520,166.7,520,166.8,520z"/>
			<path id="Path_33" class="st0" d="M169.4,520c0.4,0,0.7,0.3,0.6,0.7c0,0.4-0.3,0.7-0.7,0.6c-0.4,0-0.7-0.3-0.6-0.7c0,0,0,0,0,0
				C168.7,520.2,169,519.9,169.4,520C169.4,520,169.4,520,169.4,520z"/>
			<path id="Path_34" class="st0" d="M167.4,515.3c0,0.4-0.3,0.7-0.6,0.7s-0.7-0.3-0.7-0.6c0-0.4,0.3-0.7,0.6-0.7c0,0,0,0,0,0
				C167.1,514.7,167.4,515,167.4,515.3z"/>
			<path id="Path_35" class="st0" d="M164.1,516c-0.4,0-0.7-0.3-0.7-0.7c0-0.4,0.3-0.7,0.7-0.7c0.4,0,0.7,0.3,0.7,0.7c0,0,0,0,0,0
				C164.8,515.7,164.5,516,164.1,516L164.1,516z"/>
			<path id="Path_36" class="st0" d="M158.8,512.1c0.4,0,0.7,0.3,0.7,0.6c0,0.4-0.3,0.7-0.6,0.7c-0.4,0-0.7-0.3-0.7-0.6c0,0,0,0,0,0
				C158.2,512.4,158.5,512.1,158.8,512.1C158.8,512.1,158.8,512.1,158.8,512.1z"/>
			<path id="Path_37" class="st0" d="M158.9,518.6c-0.4,0-0.7-0.3-0.7-0.7c0-0.4,0.3-0.7,0.7-0.7c0.4,0,0.7,0.3,0.7,0.7c0,0,0,0,0,0
				C159.5,518.3,159.2,518.6,158.9,518.6z"/>
			<path id="Path_38" class="st0" d="M159.5,520.6c0,0.4-0.3,0.7-0.7,0.6c-0.4,0-0.7-0.3-0.6-0.7c0-0.4,0.3-0.7,0.7-0.6c0,0,0,0,0,0
				C159.2,520,159.5,520.3,159.5,520.6z"/>
			<path id="Path_39" class="st0" d="M158.9,516c-0.4,0-0.7-0.3-0.7-0.7c0-0.4,0.3-0.7,0.7-0.7c0.4,0,0.7,0.3,0.7,0.7c0,0,0,0,0,0
				C159.5,515.7,159.2,516,158.9,516C158.9,516,158.9,516,158.9,516z"/>
			<path id="Path_40" class="st0" d="M174.6,512.1c0.4,0,0.7,0.3,0.7,0.6c0,0.4-0.3,0.7-0.6,0.7s-0.7-0.3-0.7-0.6c0,0,0,0,0,0
				C174,512.4,174.3,512.1,174.6,512.1C174.6,512.1,174.6,512.1,174.6,512.1z"/>
			<path id="Path_41" class="st0" d="M174.6,514.7c0.4,0,0.7,0.3,0.7,0.6c0,0.4-0.3,0.7-0.6,0.7s-0.7-0.3-0.7-0.6c0,0,0,0,0,0
				C174,515,174.3,514.7,174.6,514.7z"/>
			<path id="Path_42" class="st0" d="M174.6,517.3c0.4,0,0.7,0.3,0.7,0.7c0,0.4-0.3,0.7-0.7,0.7c-0.4,0-0.7-0.3-0.7-0.7c0,0,0,0,0,0
				C174,517.6,174.3,517.3,174.6,517.3C174.6,517.3,174.6,517.3,174.6,517.3z"/>
			<path id="Path_43" class="st0" d="M174.6,520c0.4,0,0.7,0.3,0.7,0.6c0,0.4-0.3,0.7-0.6,0.7s-0.7-0.3-0.7-0.6c0,0,0,0,0,0
				C174,520.2,174.3,520,174.6,520z"/>
		</g>
	</g>
</g>
</svg>
