<?xml version="1.0" encoding="utf-8"?>
<!-- Generator: Adobe Illustrator 24.3.0, SVG Export Plug-In . SVG Version: 6.00 Build 0)  -->
<svg version="1.1" id="Layer_1" xmlns="http://www.w3.org/2000/svg" xmlns:xlink="http://www.w3.org/1999/xlink" x="0px" y="0px"
	 viewBox="0 0 16 16" style="enable-background:new 0 0 16 16;" xml:space="preserve">
<style type="text/css">
	.st0{fill:#FFFFFF;}
</style>
<g>
	<path class="st0" d="M14,1.4c0.2,0.1,0.4,0.3,0.5,0.5c0.1,0.4,0,0.7-0.2,0.9c-0.8,0.8-1.6,1.6-2.3,2.3C11.1,6.1,10.2,7,9.2,7.9
		c0,0-0.1,0.1-0.1,0.1c0,0,0.1,0.1,0.1,0.1c1.7,1.7,3.3,3.3,5,5c0.3,0.3,0.4,0.6,0.2,0.9c-0.2,0.5-0.8,0.7-1.3,0.4
		c-0.1,0-0.1-0.1-0.2-0.1c-1.7-1.7-3.3-3.3-5-5c0,0-0.1-0.1-0.1-0.1c0,0,0,0-0.1,0c0,0,0,0.1-0.1,0.1c-1.7,1.7-3.3,3.3-5,5
		c-0.2,0.2-0.5,0.3-0.8,0.3c-0.6-0.1-0.8-0.8-0.4-1.3c0,0,0.1-0.1,0.1-0.1c1.7-1.7,3.3-3.3,5-5c0,0,0.1-0.1,0.1-0.1
		c0,0-0.1-0.1-0.1-0.1c-1.7-1.7-3.4-3.4-5-5C1.4,2.5,1.3,2.2,1.5,1.8C1.6,1.6,1.8,1.5,2,1.4c0.1,0,0.3,0,0.4,0
		c0.2,0.1,0.4,0.2,0.5,0.4c1.6,1.6,3.3,3.3,4.9,4.9c0,0,0.1,0.1,0.1,0.1c0,0,0.1-0.1,0.1-0.1c1.7-1.7,3.3-3.3,5-5
		c0.1-0.1,0.3-0.2,0.4-0.3C13.7,1.4,13.9,1.4,14,1.4z"/>
</g>
</svg>
