<svg xmlns="http://www.w3.org/2000/svg" width="22.792" height="25.94" viewBox="0 0 22.792 25.94">
  <g id="Group_1186" data-name="Group 1186" transform="translate(0)">
    <path id="Path_6486" data-name="Path 6486" d="M901.94,473.775,896,468.4l.639,2.329h-3.2q-5.662,0-11.324,0a2.633,2.633,0,0,1-2.893-2.867q-.013-8.582,0-17.165a2.638,2.638,0,0,1,2.905-2.861q8.334,0,16.669,0a5.233,5.233,0,0,1,1.324.115,2.55,2.55,0,0,1,1.88,2.584q.021,11.361,0,22.722C902.007,473.368,901.98,473.479,901.94,473.775Zm-7.032-18.717-.064.187a11.424,11.424,0,0,0-8.608.012l-.037-.178,2.6-1.15a5.707,5.707,0,0,0-2.982.745,2.534,2.534,0,0,0-1.289,1.4,23.465,23.465,0,0,0-1.432,5.412,2.26,2.26,0,0,0,1.38,2.606,6.656,6.656,0,0,0,1.294.524c1.252.329,1.334.278,2.043-.835l-1.777-1.093.089-.186a9.685,9.685,0,0,0,9.29-.03l.071.212-1.964,1.138c.4.388.536,1.087,1.362.948a4.993,4.993,0,0,0,3.027-1.48,1.49,1.49,0,0,0,.356-.924,16.094,16.094,0,0,0-1.658-6.76,1.39,1.39,0,0,0-.425-.538,6.337,6.337,0,0,0-3.116-1.176,2.315,2.315,0,0,0-.522.109Z" transform="translate(-879.218 -447.834)" fill="#fff"/>
    <path id="Path_6487" data-name="Path 6487" d="M936.641,526.691a1.351,1.351,0,0,1-1.3,1.441A1.376,1.376,0,0,1,934,526.725a1.427,1.427,0,0,1,1.317-1.454A1.369,1.369,0,0,1,936.641,526.691Z" transform="translate(-926.289 -514.377)" fill="#fff"/>
    <path id="Path_6488" data-name="Path 6488" d="M969.117,528.1a1.372,1.372,0,0,1-1.338-1.413,1.34,1.34,0,1,1,2.672,0A1.366,1.366,0,0,1,969.117,528.1Z" transform="translate(-955.32 -514.352)" fill="#fff"/>
  </g>
</svg>
