<svg xmlns="http://www.w3.org/2000/svg" width="25.928" height="25.93" viewBox="0 0 25.928 25.93">
  <g id="emoji-input" transform="translate(-642 -948)">
    <g id="Group_32" data-name="Group 32" transform="translate(581.204 899.556)">
      <path id="Path_92" data-name="Path 92" d="M60.8,62.326V60.5c.017-.073.037-.146.049-.22.09-.59.141-1.189.273-1.77A12.967,12.967,0,0,1,86.7,60.692a12.569,12.569,0,0,1-2.3,8.111,12.715,12.715,0,0,1-8.393,5.374c-.446.081-.9.132-1.345.2H72.846c-.3-.039-.6-.073-.9-.117A12.986,12.986,0,0,1,61,63.7C60.915,63.242,60.862,62.783,60.8,62.326ZM73.75,72.35A10.935,10.935,0,1,0,62.821,61.414,10.969,10.969,0,0,0,73.75,72.35Z" transform="translate(0 0)" fill="#8b8b8b"/>
      <path id="Path_93" data-name="Path 93" d="M179.052,275.327a5.939,5.939,0,0,1-4.355-1.976,7.037,7.037,0,0,1-.7-.858,1.013,1.013,0,1,1,1.661-1.158,4.818,4.818,0,0,0,1.76,1.561,3.514,3.514,0,0,0,4.011-.47,6.807,6.807,0,0,0,1.025-1.074,1.036,1.036,0,0,1,1.444-.288,1,1,0,0,1,.229,1.449,6.506,6.506,0,0,1-4.115,2.75,3.6,3.6,0,0,1-.45.062C179.39,275.335,179.221,275.327,179.052,275.327Z" transform="translate(-105.357 -207.392)" fill="#8b8b8b"/>
      <path id="Path_94" data-name="Path 94" d="M169.155,172.145a1.265,1.265,0,1,1-1.275,1.254A1.253,1.253,0,0,1,169.155,172.145Z" transform="translate(-99.843 -115.336)" fill="#8b8b8b"/>
      <path id="Path_95" data-name="Path 95" d="M301.435,173.41a1.265,1.265,0,1,1-1.264-1.265A1.254,1.254,0,0,1,301.435,173.41Z" transform="translate(-222.008 -115.336)" fill="#8b8b8b"/>
    </g>
  </g>
</svg>
