<?xml version="1.0" encoding="utf-8"?>
<!-- Generator: Adobe Illustrator 24.3.0, SVG Export Plug-In . SVG Version: 6.00 Build 0)  -->
<svg version="1.1" id="Layer_1" xmlns="http://www.w3.org/2000/svg" xmlns:xlink="http://www.w3.org/1999/xlink" x="0px" y="0px"
	 viewBox="0 0 500 500" style="enable-background:new 0 0 500 500;" xml:space="preserve">
<style type="text/css">
	.st0{fill:#FAC548;}
</style>
<g>
	<path class="st0" d="M225.9,329.2c-19.1,8.9-27.7-4-36.4-17.8c-6.8-10.9-14.4-21.1-21.5-31.8c-2.3-3.5-4.6-5.2-9-3.5
		c-13.6,5.5-27.2,10.7-40.8,16.1c-2.1,0.9-3.8,2.7-5.8,3.9c-5.4,3.3-5.6,6.7-0.9,11.1c7.6,7.2,14.8,14.8,22.2,22.1
		c11.2,11,16.5,24.4,16.5,40.1c-0.1,36.3,0,72.7-0.1,109c0,2.6,0.5,5.5-0.5,7.7c-1,2.1-3.8,4.9-5.5,4.8c-2.4-0.2-5.4-2.5-6.6-4.7
		c-1.2-2.3-0.7-5.6-0.7-8.5c0-35.8-0.3-71.6,0.1-107.4c0.1-13-4.4-23.3-13.5-32.1c-5.8-5.6-11.2-11.7-16.9-17.5
		c-1.9-1.9-4.3-3.4-6.5-5.1c-0.9,0.2-1.8,0.4-2.7,0.6c0,9.9-0.3,19.9,0.1,29.8c0.7,18.8,1.9,37.5,2.7,56.3c1.2,26.9,2.2,53.7,3,80.6
		c0.1,2.7-1.9,7-4.1,7.8c-5.4,2-8.1-1.1-8.3-6.8c-0.6-16.7-1.3-33.4-2.1-50.1c-1.6-34.1-2.9-68.3-4.9-102.4
		c-1.4-23.8,11-44.6,33.1-53.2c12.9-5,25.9-9.6,38.7-14.8c4.2-1.7,8.2-4.5,11.7-7.5c6.1-5.4,11.4-11.5,17.4-17
		c6.4-5.9,7.7-17.7,3.5-25.3c-6.3-11.3-11.8-23.1-18-34.5c-1.2-2.2-3.3-4.6-5.6-5.5c-22.9-8.6-27.6-31.9-10.1-48.6
		c1.9-1.8,1.9-6.4,1.6-9.7c-1.1-15.3-4-30.7-3.4-45.9c0.8-20.9,11.8-32.1,31.9-37.4c2.7-0.7,5.4-2,7.6-3.6
		c25-18.5,53.2-22.7,83.3-19.2c15.4,1.8,29.7,6,42.3,15.1c22.8,16.4,32.4,39.7,33.4,66.8c0.4,10.1-1.7,20.2-2.1,30.4
		c-0.1,3.3,0.5,7.3,2.2,10.1c10,15.2,4.1,35-13,40.9c-5.3,1.8-7.5,4.9-9.6,9.8c-4.5,10.2-9.6,20.2-15.4,29.6
		c-5.3,8.6-3.5,19.6,2.5,27.4c16,20.7,38.8,29.4,62.2,36.7c23,7.1,40.5,29,38.3,59c-3.2,43.2-3.8,86.6-5.5,129.9
		c-0.2,6.2-0.9,12.5-1.3,18.7c-0.3,4.2-0.8,7.9-6.5,7.6c-5.5-0.2-6.2-3.7-6.1-8c0.6-18.8,1.1-37.6,1.9-56.4
		c0.9-22.2,1.9-44.3,2.9-66.5c0.5-10.4,1.1-20.8,1.5-31.3c0.1-4.3-0.5-8.6-0.8-13c-2.1,0.3-3.1,0.1-3.5,0.5
		c-11,12.1-22.3,24-32.4,36.7c-2.8,3.5-2.7,10-2.7,15.1c-0.2,36.9-0.1,73.7-0.2,110.6c0,3.1-0.1,6.5-1.5,9.1c-0.9,1.7-4.1,3-6.3,2.9
		c-1.7,0-4.1-2.1-4.8-3.8c-1-2.6-0.9-5.6-0.9-8.5c0-35.8,0.2-71.6-0.1-107.4c-0.1-17.2,5.6-31.6,18-43.5c6.8-6.5,13.4-13.2,20-19.9
		c6-6.1,6-7.6-1.1-12.6c-3.8-2.7-8.1-4.8-12.4-6.6c-9.9-4.1-20-7.6-29.9-11.7c-5.9-2.5-9.8-2-13.5,4.2
		c-8.1,13.1-17.1,25.6-25.8,38.3c-8.3,12.1-13.5,14-27.9,10.6c-1-0.2-2-0.1-3.8-0.2c-0.2,2.5-0.5,4.7-0.4,6.9
		c1.9,39.6,3.9,79.3,5.8,118.9c0.5,9.4,0.5,18.8,0.7,28.2c0.1,4.2-1,7.1-5.9,7.5c-5.5,0.3-6.8-3.6-7-7.5c-0.7-11.5-0.9-23-1.4-34.4
		c-1.6-34.4-3.3-68.8-4.8-103.2c-0.2-4.1-1.8-5.2-5.7-5.4c-13.9-0.5-14.1-0.7-14.7,12.9c-1.8,36.8-3.4,73.5-5.1,110.3
		c-0.3,6-0.4,12-0.9,18c-0.4,4.3-0.3,9.4-6.8,9.4c-6.7,0-6.4-4.9-6.2-9.4c1.7-34.9,3.6-69.9,5-104.8
		C226.4,361.6,225.9,346,225.9,329.2z M260.1,21.9c-28.7,0-45.6,5.1-62.1,17.6c-3.2,2.4-7.2,4.1-11,5.2
		c-9.7,2.6-19.6,12.2-20.8,22.1c-2,17-0.6,34,4.5,50.2c1.3,4,5.9,7.7,9.9,9.8c1.3,0.7,5.5-4,8.3-6.3c0.6-0.5,1-1.2,1.4-1.9
		c2.4-4.1,6.6-5.7,9.7-2.6c2,2,2.6,7.3,1.3,10c-1.9,4.1-5.9,7.2-9.2,10.5c-7.5,7.5-11,7.8-19.6,1.9c-7-4.8-13.5-2.2-15,6.1
		c-1.8,9.4,2.1,15,11.9,16.2c6.8,0.9,11.2,3.7,12.6,10.7c0.4,2.3,1.3,4.5,1.9,6.8c12.2,47,70.8,66.3,108.7,36
		c12.8-10.2,21.2-22.8,24.6-38.8c1.6-7.5,4.1-13.9,13.6-14.7c9.6-0.8,13.4-6.1,12.3-15.2c-1-7.7-5.4-10.9-14.8-9.5
		c-6.9,1-11.1-1.3-13.5-7.6c-1.1-2.9-2.9-5.6-3.9-8.6c-1.6-4.7-5-5.7-9.3-4.8c-24.3,5.1-48.3,3.4-72-3.4
		c-14.1-4.1-27-10.3-36.1-22.1c-1.8-2.4-1.9-8.2-0.2-10.8c2.8-4.1,6.8-1.9,9.8,1.4c15.3,17.2,35.2,24,57.5,23.6
		c16.4-0.3,32.8-1.8,49.1-3.3c5.4-0.5,8.5,0.9,10.2,5.9c1.5,4.4,3,9,5.5,12.9c1.2,1.8,4.7,3.2,7,3c1.7-0.2,4-3,4.5-5
		c1-4,0.9-8.3,1.1-12.4c1.4-24.6-2.3-47.7-21.9-65C299.6,25.4,279.8,20.8,260.1,21.9z M204.8,229.2c-1,0.6-2,1.1-3,1.6
		c1.8,6.4,1.6,14.8,5.6,18.9c11.9,12,25.6,22.3,38.3,33.4c3.3,2.9,5.3,2.8,8.6-0.1c11.2-9.9,22.1-20,34.1-28.8
		c9-6.6,9.5-14.6,7.5-25.2C265.5,246.2,235.1,246.7,204.8,229.2z M259.4,296.9c6.8,6.2,13,11.7,19.1,17.3c6.4,5.8,11.1,5.6,16.1-1.6
		c9.6-13.9,18.9-28.1,28.1-42.3c1-1.5,1.8-4.6,1-5.5c-3.8-4.2-7.6-9-12.5-11.4c-1.8-0.9-6.5,4-9.9,6.3c-0.2,0.1-0.4,0.3-0.6,0.5
		C287.5,271.9,274.3,283.6,259.4,296.9z M188.9,251.9c-4,4-8.1,7.8-11.8,12c-0.9,1.1-1.1,4.1-0.2,5.3c9.6,14.9,19.3,29.7,29.5,44.2
		c4.4,6.3,9.3,6.2,15,0.9c4.6-4.3,8.8-8.9,13.5-13c4.1-3.6,4.2-6.4-0.1-10.1c-13.6-11.7-27-23.7-40.6-35.6
		C193,254.6,191.4,253.7,188.9,251.9z M249.8,327.1c5.8,0.6,9.9-0.4,9.4-7.6c-0.4-5.3-6-13.9-9.2-12.6c-5.1,2.1-8.7,5.8-9,12.2
		C240.6,325.9,243.8,327.9,249.8,327.1z"/>
	<path class="st0" d="M188.9,378c-4.9,0-10,0.6-14.8-0.3c-2.5-0.5-5.6-3.4-6.2-5.8c-0.4-1.6,3-5.9,4.9-6c10.9-0.6,21.8-0.5,32.7,0.1
		c1.9,0.1,5,4.2,4.8,6.2c-0.2,2.1-3.5,5.1-5.8,5.5C199.4,378.5,194.1,377.9,188.9,378C188.9,378,188.9,378,188.9,378z"/>
</g>
</svg>
