<svg id="Group_18" data-name="Group 18" xmlns="http://www.w3.org/2000/svg" width="13.577" height="17.858" viewBox="0 0 13.577 17.858">
  <path id="Path_63" data-name="Path 63" d="M-140.465-11.916c-.089.8-.2,1.59-.263,2.387a5.082,5.082,0,0,0,1.216,3.843,10.21,10.21,0,0,0,.9.875,5.773,5.773,0,0,1,1.854,3.156A6.243,6.243,0,0,1-141.4,5.754a7.065,7.065,0,0,1-1.5.177,10.782,10.782,0,0,1-1.946-.07,6.12,6.12,0,0,1-4.888-3.812,6.35,6.35,0,0,1-.441-3.087,12.978,12.978,0,0,1,1.215-4.383c.012-.026.026-.05.047-.089l2.347.683c.045-.261.079-.511.133-.758a7.54,7.54,0,0,1,3.887-5.212c.634-.351,1.276-.69,1.913-1.035.045-.024.087-.055.13-.083Zm-1.155,8.194c-.054.477-.094.927-.158,1.374A2.412,2.412,0,0,0-140.956,0a3.226,3.226,0,0,1,1.113,3.316,7.177,7.177,0,0,1-.232.736c.052-.032.1-.055.136-.083A5.08,5.08,0,0,0-137.7.166a5,5,0,0,0-.474-2.725A5.728,5.728,0,0,0-139.626-4.3a6.16,6.16,0,0,1-2.166-5.118c.008-.193.024-.386.039-.622a6.713,6.713,0,0,0-3.782,6.612l-2.81-.818c-.175.571-.363,1.113-.506,1.666A7.732,7.732,0,0,0-149.106.3a5.1,5.1,0,0,0,1.647,3.2c.215.2.458.371.688.556a5.343,5.343,0,0,1,.48-4.411l1.08.311a.929.929,0,0,0,.035-.1,4.028,4.028,0,0,1,.76-1.662,4.5,4.5,0,0,1,1.6-1.267C-142.423-3.281-142.034-3.5-141.62-3.722ZM-145.742.9c-.089.448-.195.869-.254,1.3a2.315,2.315,0,0,0,1.855,2.627,4.1,4.1,0,0,0,1.417.012A2.176,2.176,0,0,0-140.9,3.177a2.127,2.127,0,0,0-.694-2.328A3.334,3.334,0,0,1-142.679-.7c-.109-.356-.16-.729-.238-1.1-.04.03-.1.07-.157.117A2.967,2.967,0,0,0-144.2.615c-.006.236,0,.472,0,.731Z" transform="translate(150.198 11.916)" fill="#e04c39"/>
</svg>
