<svg xmlns="http://www.w3.org/2000/svg" width="31.417" height="25.93" viewBox="0 0 31.417 25.93">
  <g id="gif-input" transform="translate(-591.2 -948)">
    <g id="Group_31" data-name="Group 31" transform="translate(555.695 871.328)">
      <path id="Path_88" data-name="Path 88" d="M66.921,97.308c-.081.334-.152.67-.243,1a5.941,5.941,0,0,1-4.822,4.212,8.317,8.317,0,0,1-1.067.077q-9.568.007-19.137,0a5.883,5.883,0,0,1-5.358-3.018,5.332,5.332,0,0,1-.779-2.767c-.008-4.785-.02-9.57,0-14.355a5.913,5.913,0,0,1,5.067-5.707,8.467,8.467,0,0,1,1.129-.076q9.507-.007,19.014,0a5.926,5.926,0,0,1,5.4,3,5.508,5.508,0,0,1,.731,2.095,1.2,1.2,0,0,0,.063.2Zm-15.738,3.376q4.8,0,9.6,0a4.626,4.626,0,0,0,1-.1A4.039,4.039,0,0,0,65,96.448q.005-6.81,0-13.62a4.792,4.792,0,0,0-.077-.915,4.039,4.039,0,0,0-4.08-3.322q-9.63,0-19.261,0a4.307,4.307,0,0,0-.942.1,4.041,4.041,0,0,0-3.218,4.136q-.005,6.81,0,13.62a4.792,4.792,0,0,0,.077.915,4.041,4.041,0,0,0,4.08,3.322Q46.384,100.688,51.183,100.684Z" fill="#8b8b8b"/>
      <path id="Path_89" data-name="Path 89" d="M99.077,172.632c-.431,0-.838.012-1.244,0a.968.968,0,1,1,0-1.934c.756-.01,1.513-.014,2.27,0a.963.963,0,0,1,1.01,1.006,6.6,6.6,0,0,1-1.646,4.437,4.657,4.657,0,0,1-7.328-.244,6.7,6.7,0,0,1-1.378-5.034,6.22,6.22,0,0,1,1.956-4.044,4.617,4.617,0,0,1,6.783.408,2.817,2.817,0,0,1,.425.595.916.916,0,0,1-.355,1.154.926.926,0,0,1-1.2-.125c-.23-.232-.427-.5-.675-.709a2.74,2.74,0,0,0-4.107.558,5.074,5.074,0,0,0,.178,6.143,2.756,2.756,0,0,0,4.363-.084A4.492,4.492,0,0,0,99.077,172.632Z" transform="translate(-50.962 -82.026)" fill="#8b8b8b"/>
      <path id="Path_90" data-name="Path 90" d="M304.422,169.475h1.487c.726,0,1.451-.008,2.177,0a.972.972,0,1,1-.02,1.937c-1.2,0-2.41,0-3.663,0v.369c0,1.656,0,3.312,0,4.967a.967.967,0,0,1-1.449.927,1,1,0,0,1-.488-.929c0-.542,0-1.083,0-1.625q0-4.185,0-8.371a2.321,2.321,0,0,1,.031-.426.922.922,0,0,1,.945-.791q2.361-.007,4.721,0a.942.942,0,0,1,.971.933.931.931,0,0,1-.96.972c-1.134.013-2.269.005-3.4.006h-.348Z" transform="translate(-246.447 -82.034)" fill="#8b8b8b"/>
      <path id="Path_91" data-name="Path 91" d="M251.873,171.572c0-1.718-.007-3.436,0-5.155a.947.947,0,0,1,1.338-.9.9.9,0,0,1,.564.811c.005.082.005.164.005.245q0,5,0,10a1.627,1.627,0,0,1-.072.54.948.948,0,0,1-1.829-.294c-.015-.378-.008-.757-.008-1.135q0-2.056,0-4.111Z" transform="translate(-199.743 -81.935)" fill="#8b8b8b"/>
    </g>
  </g>
</svg>
