<?xml version="1.0" encoding="utf-8"?>
<!-- Generator: Adobe Illustrator 24.3.0, SVG Export Plug-In . SVG Version: 6.00 Build 0)  -->
<svg version="1.1" id="Group_17" xmlns="http://www.w3.org/2000/svg" xmlns:xlink="http://www.w3.org/1999/xlink" x="0px" y="0px"
	 viewBox="0 0 20.2 16.7" style="enable-background:new 0 0 20.2 16.7;" xml:space="preserve">
<style type="text/css">
	.st0{fill:#E2B441;}
</style>
<path id="Path_62" class="st0" d="M0,15.1c0.1-0.4,0.1-0.8,0.2-1.2C0.3,13,0.4,12,0.6,11.1c0.2-1.1,0.9-2,1.8-2.6
	c0.1,0,0.1-0.1,0.2-0.1C1,7.2,0.7,4.9,1.9,3.4C3,2,4.9,1.6,6.4,2.3c1-2,3.4-2.9,5.5-1.9c0.8,0.4,1.5,1.1,1.9,1.9
	c1-0.5,2.1-0.5,3.1,0c0.7,0.3,1.3,0.9,1.7,1.6c0.8,1.6,0.4,3.5-1,4.6c0,0,0.1,0.1,0.1,0.1c1.1,0.7,1.8,1.9,2,3.2
	c0.2,1.1,0.3,2.2,0.5,3.4c0.2,0.7-0.3,1.4-1,1.6c-0.1,0-0.2,0-0.3,0c-5.8,0-11.6,0-17.5,0c-0.6,0-1.2-0.4-1.3-1c0,0,0,0,0-0.1
	L0,15.1z M10.1,15.4c1.3,0,2.6,0,3.8,0c0.2,0,0.2,0,0.2-0.2c-0.2-1.3-0.4-2.7-0.6-4c-0.2-1.9-2-3.2-3.9-3c-1.4,0.2-2.5,1.2-2.9,2.5
	c-0.1,0.4-0.2,0.8-0.2,1.1c-0.2,1.1-0.3,2.2-0.5,3.4c0,0.2,0,0.2,0.2,0.2C7.5,15.3,8.8,15.4,10.1,15.4L10.1,15.4z M12.8,4.1
	c0-1.5-1.2-2.7-2.7-2.7C8.6,1.3,7.4,2.5,7.4,4c0,1.5,1.2,2.7,2.7,2.7C11.6,6.8,12.8,5.6,12.8,4.1C12.8,4.1,12.8,4.1,12.8,4.1z
	 M5.8,9.4C4.3,8.8,2.6,9.6,2,11.2c-0.1,0.2-0.1,0.4-0.1,0.5c-0.1,0.9-0.3,1.7-0.4,2.6c-0.1,0.3-0.1,0.7-0.1,1h3.3c0-0.1,0-0.2,0-0.3
	c0.1-1,0.3-2.1,0.5-3.1C5.2,11,5.4,10.2,5.8,9.4L5.8,9.4z M18.8,15.3c0-0.1,0-0.2,0-0.3c-0.2-1-0.3-2.1-0.5-3.1
	c-0.1-1.2-0.9-2.3-2.1-2.6c-0.6-0.2-1.2-0.2-1.7,0c0.2,0.5,0.3,1,0.4,1.5c0.2,1.5,0.4,3,0.7,4.5L18.8,15.3z M6,4.2
	c0-0.6,0-0.6-0.4-0.7C4.5,3,3.2,3.6,2.7,4.7C2.6,5.1,2.5,5.5,2.6,5.9c0.1,1,0.9,1.8,1.9,1.9c1,0.1,1.9-0.3,2.4-1.2
	c0.1-0.1,0-0.2,0-0.3C6.3,5.7,6.1,5,6,4.2L6,4.2z M15.2,7.8c1.3,0.1,2.4-0.9,2.5-2.1c0-0.2,0-0.3,0-0.5c-0.2-1.2-1.3-2.1-2.6-1.9
	c-0.3,0-0.5,0.1-0.7,0.2c-0.1,0-0.2,0.2-0.2,0.3c0,0.9-0.2,1.8-0.7,2.5c-0.1,0.1-0.1,0.2,0,0.3C13.7,7.3,14.4,7.8,15.2,7.8z"/>
</svg>
