<?xml version="1.0" encoding="utf-8"?>
<!-- Generator: Adobe Illustrator 24.3.0, SVG Export Plug-In . SVG Version: 6.00 Build 0)  -->
<svg version="1.1" id="Layer_1" xmlns="http://www.w3.org/2000/svg" xmlns:xlink="http://www.w3.org/1999/xlink" x="0px" y="0px"
	 viewBox="0 0 29 25.8" style="enable-background:new 0 0 29 25.8;" xml:space="preserve">
<style type="text/css">
	.st0{fill:#E2B441;}
</style>
<g id="heard_like" transform="translate(436.523 -165.814)">
	<path id="Path_100" class="st0" d="M-436.5,173.7c0.1-0.5,0.2-1,0.3-1.5c0.7-3.1,3.1-5.6,6.3-6.2c2.7-0.6,5.5,0.4,7.2,2.5
		c0.2,0.3,0.5,0.6,0.7,0.9c0.2-0.2,0.4-0.5,0.6-0.7c1-1.3,2.4-2.1,4-2.5c2.9-0.8,5.9,0.2,7.8,2.5c1.7,2,2.5,4.7,2,7.3
		c-0.3,2-1.2,3.8-2.5,5.4c-1.2,1.5-2.6,3-4.2,4.2c-2.2,1.9-4.4,3.8-6.6,5.7c-0.7,0.7-1.7,0.7-2.4,0c-2.6-2.3-5.3-4.6-7.9-6.9
		c-1.4-1.2-2.7-2.7-3.7-4.3c-0.9-1.3-1.4-2.9-1.6-4.4c0-0.1,0-0.2-0.1-0.3L-436.5,173.7z M-422,189.9c0.1-0.1,0.1-0.1,0.1-0.1
		c2.2-1.9,4.3-3.7,6.5-5.6c1.6-1.3,3-2.8,4.3-4.4c1.4-1.7,2.1-3.9,1.9-6.1c-0.1-2-1.1-3.8-2.7-5c-2.1-1.5-4.9-1.6-7-0.2
		c-0.8,0.5-1.5,1.3-2,2.1c-0.6,1.1-1.7,1.1-2.3,0c-0.1-0.2-0.3-0.4-0.5-0.6c-1-1.4-2.6-2.3-4.3-2.5c-1.9-0.2-3.8,0.5-5.1,2
		c-1.5,1.8-2.2,4.1-1.7,6.4c0.3,1.5,1,2.8,1.9,4c1.2,1.5,2.5,2.9,4,4.1C-426.6,186-424.3,188-422,189.9L-422,189.9z"/>
</g>
</svg>
