<?xml version="1.0" encoding="utf-8"?>
<!-- Generator: Adobe Illustrator 24.3.0, SVG Export Plug-In . SVG Version: 6.00 Build 0)  -->
<svg version="1.1" id="Layer_1" xmlns="http://www.w3.org/2000/svg" xmlns:xlink="http://www.w3.org/1999/xlink" x="0px" y="0px"
	 viewBox="0 0 135.6 116.4" style="enable-background:new 0 0 135.6 116.4;" xml:space="preserve">
<style type="text/css">
	.st0{fill:#FAC548;}
</style>
<circle id="Ellipse_400" class="st0" cx="41" cy="41" r="41"/>
<g id="Group_1180" transform="translate(645.638 3341.362)">
	<path id="Path_6485" d="M-603.2-3313.3l-3.5,9.9l0.6,0.3l4-5.8l0.1,0.1c-1.5,3.8-3.2,7.5-4.5,11.4c-4.4,12.4-5.1,24.9,0.5,37.1
		c7.4,16.2,20.1,25.7,38.1,27.5c0.6,0.1,1.2,0,1.8-0.3l-11.7-5.1l0.1-0.2l13.6,1.1l0.2-0.5c-5.7-5.8-11.4-11.5-17.1-17.3
		c-7.6-7.7-15.1-15.4-22.7-23.1c-0.9-0.9-1.6-2-2.1-3.1l25.5,14.2l0.3-0.3l-20.4-62l49.8,35.2c1.3-5.8,2.5-11,3.9-16.7
		c0.6,0.6,1.1,1.2,1.5,1.9c2.9,5.5,5.8,10.9,8.5,16.4c2.7,5.4,5.4,10.8,8.1,16.3c0.4,0.7,0.9,1.4,1.4,2l3.9-12.3l0.3,0
		c0.9,6.8,1.8,13.7,2.7,20.5l0.4,0.1c0.2-0.6,0.5-1.2,0.7-1.9c4.7-15.1,1.7-28.7-8.6-40.6c-10.6-12.4-24.4-17.5-40.4-17.4
		c-3.2,0-6.3,0.3-9.5,0.4l4.9-1.3c-3.2-1.1-6.5-0.9-10-0.4c16.6-7.5,45.3-5.5,62.6,18.3c16.8,23.1,11.9,55.6-10.9,73.3
		c-22.7,17.3-55,13.8-73.3-8.1C-622.7-3266.3-618.9-3296.6-603.2-3313.3z M-539.4-3265.3l-0.4,0.1l-13.8-17l-0.4,0.2
		c0.6,4.3,1.1,8.5,1.8,13.3l-24.7-27l-0.4,0.3l21.1,41.2l-9.8-3l-0.4,0.6c2.4,2.8,4.6,5.8,7.2,8.4c4.8,4.9,10.7,5.9,17.1,4.1
		c6.4-1.8,10.6-9,9.9-16c-0.6-5.3-2.5-10.4-5.5-14.9c-0.3-0.4-0.7-0.8-1-1.1C-539-3272.3-539.2-3268.8-539.4-3265.3z"/>
</g>
</svg>
