<svg xmlns="http://www.w3.org/2000/svg" width="27.2" height="24.93" viewBox="0 0 27.2 24.93">
  <g id="Group_30" data-name="Group 30" transform="translate(43.44 -13.887)">
    <path id="Path_85" data-name="Path 85" d="M-43.44,190.984c.195-.722.394-1.442.583-2.165q.7-2.677,1.393-5.355a.888.888,0,0,1,.8-.738.8.8,0,0,1,.833.528,1.236,1.236,0,0,1,.017.643c-.6,2.361-1.218,4.717-1.832,7.075-.2.752.009,1.111.758,1.312q8.6,2.305,17.209,4.608a.834.834,0,0,0,1.14-.665c.193-.752.376-1.507.567-2.26a.863.863,0,0,1,1.033-.683.862.862,0,0,1,.621,1.089c-.184.764-.364,1.529-.561,2.289a2.555,2.555,0,0,1-3.229,1.887q-8.672-2.321-17.342-4.646a2.531,2.531,0,0,1-1.94-2.028.432.432,0,0,0-.046-.093Z" transform="translate(0 -159.832)" fill="#8b8b8b"/>
    <path id="Path_86" data-name="Path 86" d="M52.663,32.024c-2.842,0-5.684-.018-8.525.008a2.742,2.742,0,0,1-2.66-1.626,2.43,2.43,0,0,1-.141-1.034c-.014-1.478-.006-2.957-.006-4.435q0-4.21,0-8.419a2.554,2.554,0,0,1,2.155-2.6,2.3,2.3,0,0,1,.422-.029q8.764,0,17.529,0a2.528,2.528,0,0,1,2.568,2.576q0,6.494,0,12.987a2.525,2.525,0,0,1-2.393,2.559c-.141.01-.283.014-.424.014Zm-1.753-6.37c.1-.119.182-.213.261-.307,1.3-1.563,2.619-3.117,3.9-4.694a2.02,2.02,0,0,1,3.139-.019c.912,1.117,1.872,2.2,2.811,3.29l1.284,1.495v-.325q0-4.236,0-8.471c0-.715-.322-1.037-1.036-1.037H44.091c-.739,0-1.047.306-1.047,1.047q0,5.51,0,11.02c0,.084.008.168.015.292.1-.091.16-.148.221-.209l3.343-3.341a2,2,0,0,1,3.026-.009C50.065,24.8,50.473,25.214,50.91,25.654Zm-7.575,4.4.017.123a2.989,2.989,0,0,0,.6.124q8.725.01,17.45,0a.846.846,0,0,0,.9-.893c.006-.381.014-.762-.006-1.142a.706.706,0,0,0-.15-.4q-2.573-3.023-5.16-6.034c-.284-.332-.4-.331-.684.006q-2.293,2.755-4.588,5.509a.871.871,0,0,1-1.45.065L48.485,25.64c-.329-.328-.358-.329-.678-.009q-1.944,1.943-3.889,3.886C43.73,29.7,43.529,29.877,43.335,30.057Z" transform="translate(-80.248)" fill="#8b8b8b"/>
    <path id="Path_87" data-name="Path 87" d="M107.421,82.181A2.266,2.266,0,1,1,109.7,79.93,2.281,2.281,0,0,1,107.421,82.181Zm.556-2.28a.555.555,0,1,0-1.109.013.555.555,0,1,0,1.109-.013Z" transform="translate(-140.664 -60.362)" fill="#8b8b8b"/>
  </g>
</svg>
