<svg xmlns="http://www.w3.org/2000/svg" width="17.53" height="24.93" viewBox="0 0 17.53 24.93">
  <g id="loc-input" transform="translate(-682.354 -949)">
    <g id="Group_33" data-name="Group 33" transform="translate(568.136 912.111)">
      <path id="Path_96" data-name="Path 96" d="M123.566,36.889c.6.111,1.2.187,1.783.34a8.346,8.346,0,0,1,3.885,2.294,8.514,8.514,0,0,1,2.309,4.282,8.643,8.643,0,0,1-1.075,6.406q-3.325,5.571-6.666,11.133a.75.75,0,0,1-1.387.019q-3.43-5.523-6.855-11.048a8.781,8.781,0,0,1,5.664-13.247c.387-.082.782-.12,1.174-.178Zm-.477,22.773c.043-.064.066-.1.087-.131l6.054-10.11A7.305,7.305,0,0,0,123.81,38.4a7.313,7.313,0,0,0-8.079,6.421,7.237,7.237,0,0,0,1.124,4.8q2.639,4.24,5.268,8.486Z" transform="translate(0)" fill="#8b8b8b"/>
      <path id="Path_97" data-name="Path 97" d="M190.536,108.766a4.38,4.38,0,1,1-4.393,4.356A4.378,4.378,0,0,1,190.536,108.766Zm-.011,7.3a2.923,2.923,0,1,0-2.925-2.918A2.927,2.927,0,0,0,190.525,116.069Z" transform="translate(-67.541 -67.495)" fill="#8b8b8b"/>
    </g>
  </g>
</svg>
