<?xml version="1.0" encoding="utf-8"?>
<!-- Generator: Adobe Illustrator 24.3.0, SVG Export Plug-In . SVG Version: 6.00 Build 0)  -->
<svg version="1.1" id="Layer_1" xmlns="http://www.w3.org/2000/svg" xmlns:xlink="http://www.w3.org/1999/xlink" x="0px" y="0px"
	 viewBox="0 0 25 16.6" style="enable-background:new 0 0 25 16.6;" xml:space="preserve">
<style type="text/css">
	.st0{fill:#FAC548;}
</style>
<g id="Group_51" transform="translate(-903.146 -473.379)">
	<path id="Path_2" class="st0" d="M910.9,483.8c3.3,2.6,6.2,2.6,9.5,0c0.6,0.7,1.3,1.4,1.9,2.1c0.5,0.5,1,0.8,1.6,0.3
		c0.7-0.6,0.4-1.2-0.1-1.7c-0.6-0.7-1.3-1.4-1.8-2.1l6-6V490h-24.7v-13.3l6,5.9c-0.5,0.6-1.2,1.3-1.8,2.1c-0.5,0.5-0.7,1.1-0.1,1.6
		c0.6,0.6,1.2,0.3,1.7-0.3C909.6,485.2,910.2,484.5,910.9,483.8z"/>
	<path id="Path_3" class="st0" d="M903.1,473.4h25c-0.9,0.8-1.6,1.5-2.3,2.1c-2.3,2.3-4.7,4.7-7,7c-1.5,1.8-4.2,2-5.9,0.4
		c-0.2-0.1-0.3-0.3-0.4-0.4C909.4,479.6,906.4,476.6,903.1,473.4z"/>
</g>
</svg>
