<?xml version="1.0" encoding="utf-8"?>
<!-- Generator: Adobe Illustrator 24.3.0, SVG Export Plug-In . SVG Version: 6.00 Build 0)  -->
<svg version="1.1" id="Layer_1" xmlns="http://www.w3.org/2000/svg" xmlns:xlink="http://www.w3.org/1999/xlink" x="0px" y="0px"
	 viewBox="0 0 29.5 22.4" style="enable-background:new 0 0 29.5 22.4;" xml:space="preserve">
<style type="text/css">
	.st0{fill:#FFFFFF;}
</style>
<g id="Group_86" transform="translate(-1291 -21)">
	<g id="Group_85">
		<g id="Group_5" transform="translate(1240.298 -109.854)">
			<path id="Path_51" class="st0" d="M80.2,147.9c0,0.1,0,0.1-0.1,0.2c-0.3,1.3-1.4,2.2-2.8,2.2c-0.8,0-1.7,0-2.6,0c0,0.5,0,1,0,1.5
				c0,0.2,0,0.3,0,0.5c0,0.5-0.4,0.9-0.9,1c-0.2,0-0.4,0-0.5-0.1c-0.7-0.4-1.4-0.9-2.1-1.3c-0.7-0.4-1.4-0.9-2.1-1.3
				c-0.1-0.1-0.3-0.1-0.5-0.1c-1.4,0-2.7,0-4.1,0c-0.5,0-1-0.4-1-0.9c0-0.4,0.3-0.8,0.7-0.9c0.1,0,0.2,0,0.3,0c1.5,0,3,0,4.5,0
				c0.2,0,0.4,0.1,0.6,0.2c1,0.6,2.1,1.3,3.2,2c0-0.2,0-0.3,0-0.5c0-0.2,0-0.5,0-0.7c0-0.5,0.4-1,0.9-1c0,0,0.1,0,0.1,0
				c1.1,0,2.2,0,3.3,0c0.5,0.1,1-0.3,1.1-0.8c0-0.1,0-0.2,0-0.3c0-2.5,0-5,0-7.5c0.1-0.5-0.3-1-0.8-1.1c-0.1,0-0.1,0-0.2,0
				c-0.5,0-0.9-0.5-0.9-1c0-0.5,0.5-0.9,1-0.9c0,0,0,0,0.1,0c1.3,0,2.4,1,2.7,2.3c0,0.1,0,0.1,0.1,0.2L80.2,147.9z"/>
			<path id="Path_52" class="st0" d="M56.1,146.8c-0.7,0-1.5,0-2.2,0c-0.4,0-0.7,0-1.1-0.1c-1.3-0.3-2.1-1.4-2.1-2.7
				c0-3.4,0-6.8,0-10.2c0-1.6,1.2-2.9,2.8-2.9c0,0,0.1,0,0.1,0c0.2,0,0.3,0,0.5,0c5.6,0,11.3,0,16.9,0c1.3-0.1,2.5,0.7,2.9,2
				c0.1,0.3,0.1,0.7,0.1,1c0,3.3,0,6.7,0,10c0.1,1.6-1.2,2.9-2.7,3c-0.1,0-0.2,0-0.2,0c-2.9,0-5.8,0-8.7,0c-0.2,0-0.3,0.1-0.5,0.2
				c-1.4,1-2.8,2.1-4.1,3.1c-0.4,0.3-1,0.3-1.3-0.1c-0.1-0.1-0.2-0.2-0.2-0.3c0-0.1,0-0.2,0-0.3c0-0.8,0-1.5-0.1-2.3
				C56.1,147,56.1,146.9,56.1,146.8z M58,147.4L58,147.4c1.1-0.7,2.1-1.5,3-2.2c0.2-0.2,0.6-0.3,0.9-0.3c3,0,6.1,0,9.1,0
				c0.5,0.1,1-0.3,1.1-0.8c0-0.1,0-0.1,0-0.2c0-3.3,0-6.7,0-10c0.1-0.5-0.3-1-0.8-1c-0.1,0-0.2,0-0.2,0c-5.8,0-11.6,0-17.4,0
				c-0.5-0.1-1,0.3-1.1,0.8c0,0.1,0,0.2,0,0.2c0,3.3,0,6.6,0,10c-0.1,0.5,0.3,1,0.9,1.1c0.1,0,0.2,0,0.2,0c1.1,0,2.1,0,3.2,0
				c0.6-0.1,1.1,0.3,1.2,0.9c0,0.1,0,0.2,0,0.2C58,146.5,58,147,58,147.4L58,147.4z"/>
			<path id="Path_53" class="st0" d="M62.4,138.1c-1.6,0-3.2,0-4.9,0c-0.4,0-0.8-0.2-1-0.5c-0.2-0.5,0-1,0.4-1.3
				c0.1-0.1,0.2-0.1,0.4-0.1c0.1,0,0.1,0,0.2,0h9.7c0.5-0.1,1,0.3,1.1,0.8c0.1,0.5-0.2,1-0.7,1.1c-0.1,0-0.3,0-0.4,0
				C65.5,138.1,63.9,138.1,62.4,138.1z"/>
			<path id="Path_54" class="st0" d="M62.4,142.2c-1.1,0-2.1,0-3.2,0c-0.5,0-1-0.4-1-0.9c0-0.2,0-0.4,0.1-0.5c0.2-0.4,0.6-0.6,1-0.5
				c1.9,0,3.9,0,5.8,0c0.2,0,0.3,0,0.5,0c0.5,0,1,0.3,1,0.9c0,0.5-0.3,1-0.9,1c-0.1,0-0.1,0-0.2,0C64.5,142.2,63.4,142.2,62.4,142.2
				z"/>
		</g>
	</g>
</g>
</svg>
