<svg xmlns="http://www.w3.org/2000/svg" width="21.642" height="21.641" viewBox="0 0 21.642 21.641">
  <path id="Icon_metro-instagram" data-name="Icon metro-instagram" d="M20.62,1.928H6.164A3.6,3.6,0,0,0,2.571,5.521V19.976a3.6,3.6,0,0,0,3.593,3.593H20.62a3.6,3.6,0,0,0,3.593-3.593V5.521A3.6,3.6,0,0,0,20.62,1.928ZM9.5,11.4h7.786a4.121,4.121,0,1,1-7.786,0Zm12.009,0v8.114a1.357,1.357,0,0,1-1.353,1.353H6.629a1.357,1.357,0,0,1-1.353-1.353V11.4H7.392a6.15,6.15,0,1,0,12,0Zm0-4.735a.678.678,0,0,1-.676.676H19.479a.678.678,0,0,1-.676-.676V5.309a.678.678,0,0,1,.676-.676h1.353a.678.678,0,0,1,.676.676Z" transform="translate(-2.571 -1.928)" fill="#fff"/>
</svg>
