<?xml version="1.0" encoding="utf-8"?>
<!-- Generator: Adobe Illustrator 24.3.0, SVG Export Plug-In . SVG Version: 6.00 Build 0)  -->
<svg version="1.1" id="Layer_1" xmlns="http://www.w3.org/2000/svg" xmlns:xlink="http://www.w3.org/1999/xlink" x="0px" y="0px"
	 viewBox="0 0 27.6 22.4" style="enable-background:new 0 0 27.6 22.4;" xml:space="preserve">
<style type="text/css">
	.st0{fill:#FFFFFF;}
</style>
<g id="Group_84" transform="translate(-1176 -21)">
	<g id="Group_4" transform="translate(1113.346 -57.457)">
		<path id="Path_50" class="st0" d="M90.2,93.3c-0.2,0.4-0.6,0.7-1,0.6c-1.3,0-2.6,0-3.9,0c-0.4,0.1-0.7-0.1-1-0.4
			c-1.1,3.1-3.5,5.5-6.6,6.6c-2.2,0.9-4.6,1-6.9,0.3c-6-1.6-9.5-7.8-7.8-13.8c1-3.7,3.8-6.6,7.5-7.7c1.8-0.6,3.7-0.7,5.6-0.3
			c1.9,0.4,3.6,1.3,5,2.5c1.4,1.2,2.5,2.8,3.2,4.6c0.2-0.3,0.6-0.5,1-0.4c1.3,0,2.6,0,3.9,0c0.4-0.1,0.9,0.2,1,0.6v0.4l-2.4,3.2
			l0.2,0.3l2.2,3V93.3z M81.6,88.8c0.3,0.1,0.6,0,0.8-0.3c0.2-0.3,0.5-0.6,0.7-0.9c0.1-0.1,0.1-0.3,0.1-0.4
			c-1.3-5.1-6.6-8.2-11.7-6.8c-5.1,1.3-8.2,6.6-6.8,11.7c1.3,5.1,6.6,8.2,11.7,6.8c0.3-0.1,0.6-0.2,0.8-0.3c3-1,5.2-3.5,6-6.5
			c0.1-0.1,0-0.3-0.1-0.4c-0.2-0.3-0.5-0.6-0.7-0.9c-0.1-0.3-0.5-0.4-0.8-0.3c-0.2,2.1-1.3,4-3,5.3c-1.7,1.3-3.8,1.9-5.9,1.5
			c-4.2-0.7-7.1-4.7-6.4-8.9c0.5-3.4,3.3-6,6.7-6.4c1.7-0.2,3.5,0.1,5,1C79.9,84.3,81.3,86.4,81.6,88.8z M79.9,90.5
			c-0.5,0-1.1,0-1.6,0c-0.2,0-0.3,0-0.3,0.2c-0.6,2.3-2.9,3.6-5.2,3c-2.3-0.6-3.6-2.9-3-5.2c0.6-2.3,2.9-3.6,5.2-3
			c1.5,0.4,2.7,1.6,3.1,3.1c0,0.1,0.1,0.2,0.2,0.2c0.6,0,1.1,0,1.7,0c-0.4-3.3-3.5-5.7-6.8-5.2c-3.3,0.4-5.7,3.5-5.2,6.8
			s3.5,5.7,6.8,5.2C77.4,95.3,79.5,93.2,79.9,90.5L79.9,90.5z M76.3,88.9c-0.4-1.4-1.9-2.2-3.3-1.7c-1.2,0.4-1.9,1.5-1.8,2.7
			c0.1,1.3,1.1,2.3,2.4,2.4c1.2,0.1,2.3-0.7,2.7-1.8h-0.3c-0.7,0-1.4,0-2.2,0c-0.1,0-0.2,0-0.3,0c-0.4-0.1-0.7-0.6-0.5-1
			c0.1-0.3,0.4-0.6,0.8-0.6C74.7,88.9,75.5,88.9,76.3,88.9z M87.8,87c-0.8,0-1.5,0-2.2,0c-0.1,0-0.2,0.1-0.2,0.1
			c-0.6,0.8-1.2,1.6-1.7,2.3c-0.1,0.1-0.1,0.2,0,0.3c0,0,0,0,0,0c0.6,0.8,1.2,1.6,1.8,2.3c0.1,0.1,0.2,0.1,0.3,0.1
			c0.6,0,1.3,0,1.9,0c0.1,0,0.1,0,0.2,0c-0.5-0.7-1-1.4-1.5-2.1c-0.3-0.3-0.3-0.8,0-1.1c0.3-0.4,0.5-0.7,0.8-1.1L87.8,87z"/>
	</g>
</g>
</svg>
