<?xml version="1.0" encoding="utf-8"?>
<!-- Generator: Adobe Illustrator 24.3.0, SVG Export Plug-In . SVG Version: 6.00 Build 0)  -->
<svg version="1.1" id="Layer_1" xmlns="http://www.w3.org/2000/svg" xmlns:xlink="http://www.w3.org/1999/xlink" x="0px" y="0px"
	 viewBox="0 0 500 500" style="enable-background:new 0 0 500 500;" xml:space="preserve">
<style type="text/css">
	.st0{fill:#FAC548;}
</style>
<g>
	<path class="st0" d="M73.9,249.9c0-67.9,0-135.8,0-203.7c0-12.1,1.2-23.8,12.9-30.4c5-2.8,11.1-5,16.7-5
		c86.7-0.3,173.4-0.3,260-0.2c16.2,0,28.5,12.6,28.6,28.7c0.1,24.6,0,49.2,0,73.8c0,1.3,0,2.6,0,3.9c-0.3,5.5-3.7,7.8-8.7,7.8
		c-5,0-8.4-2.3-8.4-7.9c0-9.8-0.2-19.7,0-29.5c0.1-6-2.1-8.1-8.2-8.1c-29.8,0.3-59.7,0.2-89.5,0.1c-3.3,0-7.3,0.3-9.8-1.3
		c-2.5-1.6-4.9-5.4-5-8.3c-0.1-2.5,2.6-6,5-7.4c2.7-1.5,6.5-1.3,9.9-1.4c29.6-0.1,59.2-0.2,88.8,0.1c6.8,0.1,9-2,9-8.8
		c0.1-23.9,0.2-24.1-24.1-24.1c-80.4,0-160.9,0-241.3,0c-16.3,0-17.9,1.6-17.9,17.7c0,15.1,0,15.1,15.1,15.1c28,0,56-0.1,84.1,0
		c10,0,13.3,3.5,11.9,11.6c-1.2,7.2-6.9,6.7-12,6.8c-29.8,0.1-59.7,0.3-89.5-0.1c-7.3-0.1-9.7,1.6-9.7,9.3
		c0.3,107.5,0.2,215.1,0.2,322.6c0,10.2,0,10.3,10.3,10.3c87.4,0,174.9,0,262.4,0c10.3,0,10.5-0.3,10.6-10.4c0-9.1,0.1-18.1,0-27.2
		c-0.1-6.1,2.9-9.5,8.8-9.4c5.4,0.1,8.5,3.5,8.5,9.1c0,27,0.3,53.9-0.2,80.8c-0.2,13.3-12.9,25-26.1,25c-88.2,0.1-176.5,0.1-264.7,0
		c-13.7,0-24.8-9.9-26.5-23.5c-0.5-4.1-0.7-8.3-0.7-12.4C73.9,385.6,73.9,317.8,73.9,249.9z M233.6,439.1c-41.7,0-83.5-0.1-125.2,0
		c-20.1,0-16.4-1.8-16.7,17c-0.2,14.1,2,16.1,16.2,16.1c81.4,0,162.8,0,244.2,0c23,0,23,0,22.8-22.9c-0.1-10-0.3-10.3-10.6-10.3
		C320.7,439.1,277.1,439.1,233.6,439.1z"/>
	<path class="st0" d="M217.4,352.8c0,9.9-0.4,17.3,0.3,24.7c0.1,1.6,3.6,4.1,5.6,4.3c7,0.6,14,0.2,21,0.4c5.1,0.2,9,1.7,9.3,8
		c0.3,6.2-2.4,9.5-8.4,9.6c-11.9,0.3-23.9,0.6-35.8,0.2c-6.2-0.2-9.6-3.6-9.6-10.6c0.1-92.5,0.1-185,0-277.5
		c0-7.3,2.5-11.3,10.2-11.2c11.7,0.2,23.3,0.2,35,0.3c5.7,0.1,8.3,2.8,8.5,8.7c0.2,6.1-3.2,8.6-8.4,8.9c-7,0.4-14,0.3-21,0.1
		c-4.9-0.1-7.2,1.7-7,6.8c0.2,6.6,0.1,13.2,0.1,22.3c32.4-22.8,66.2-30.5,102.7-24.4c37.2,6.2,65.4,26.8,85.9,57.6
		c28.8,43.1,27.5,105.3-7.9,149.4c-21.8,27.2-50.1,42.7-84.4,47.5C279.1,382.8,248,373.6,217.4,352.8z M217.5,309
		c0.6,8.9-3.1,16.3,3.4,22.3c29.7,27.9,65.2,36.5,103.7,26.6c83.1-21.3,108.2-118.8,58.3-178.8c-39.7-47.8-113.7-54.1-159.6-12.3
		c-6.8,6.2-8.2,14.5-1.8,25.4c3.3-3.2,5.2-7.8,8.5-11c26.8-26.2,58.3-33.9,94.3-23.5c5.5,1.6,8.6,4.5,6.9,10.7
		c-1.7,5.9-5.3,7.7-11.2,6.1c-33.2-8.8-61.4-1-83.8,25.6c-20.2,24.1-24.3,51.3-12.7,79.9c11.8,29,34.5,46.1,65.6,49
		c56.5,5.2,98.4-44.3,85.1-99.3c-1.4-6-1.2-10.4,5.3-12.3c6.9-2,10,1.9,11.6,8c4.5,17.7,4,35.1-1.2,52.8
		c-18.9,64.1-98.1,90.3-150.9,49.5C231.9,322.6,225.7,316.3,217.5,309z"/>
	<path class="st0" d="M241.4,69.6c0.7,6.1-2.3,9.2-7.8,9.4c-5.6,0.2-9.3-2.6-9.2-8.8c0-5.7,3.2-8.7,8.6-8.7
		C238.2,61.5,242,63.7,241.4,69.6z"/>
	<path class="st0" d="M232.9,447.5c5.9-0.3,8.7,2.2,8.7,8.2c0,5.8-3,8.8-8.5,8.7c-5.4-0.1-8.7-3.1-8.6-8.8
		C224.4,450,226.9,446.9,232.9,447.5z"/>
	<path class="st0" d="M328,251.7c15.5,21.7,7.9,43.4-18.4,51.3c-2,0.6-4,3.6-4.5,5.9c-1.3,5.1-4.3,7.6-9.3,7.5
		c-4.7-0.1-8-2.4-8.5-7.3c-0.5-5.6-3.8-6.6-8.5-6.4c-5.2,0.2-10.4-0.1-15.5,0.1c-5.4,0.2-9.2-1.5-9.6-7.5c-0.5-5.9,2-9.5,8.2-9.8
		c0.7,0,1.5-0.4,3.4-0.9c0-6.4,0-13,0-19.7c0-14.2,0-28.5,0-42.7c0-3.8-0.1-7.4-5.2-7.8c-6-0.5-7.6-5.1-6.2-9.4
		c1.1-3.1,4.9-6.7,8-7.4c5.4-1.2,11.3-0.6,17-0.3c4.6,0.2,8-0.2,8.5-6.1c0.5-4.6,3.9-7.9,8.7-6.5c3.1,0.9,7.4,3.6,8,6.2
		c1.1,5.1,3.9,6.5,8.1,7.9c16.4,5.2,25.4,18,23,34C334.4,238.9,330.9,244.6,328,251.7z M296.8,285.6c1.8,0,3.6,0,5.4,0
		c9.1-0.2,16-6,16-13.4c0-7.9-6-12.9-16.1-12.8c-21.7,0.3-18.1-3.8-18.6,19c-0.1,5.3,1.6,7.8,7.1,7.3
		C292.6,285.5,294.7,285.6,296.8,285.6z M297.3,240.9c2.6,0,5.2,0.1,7.7,0c7.2-0.3,12.6-5,13.2-11.5c0.6-6.4-3.9-12.3-11-13.7
		c-3.5-0.7-7.2-0.6-10.8-0.6c-12.8-0.1-12.9,0-12.8,12.3C283.7,242.1,281.3,240.9,297.3,240.9z"/>
	<path class="st0" d="M359.4,196.9c-5.5-0.5-10.1-3.1-8.6-8.6c1-3.6,5.5-8.8,8.3-8.6c3.3,0.1,8.5,4.8,9.1,8.1
		C369.1,192.8,365.1,196.7,359.4,196.9z"/>
</g>
</svg>
