<?xml version="1.0" encoding="utf-8"?>
<!-- Generator: Adobe Illustrator 24.3.0, SVG Export Plug-In . SVG Version: 6.00 Build 0)  -->
<svg version="1.1" id="Layer_1" xmlns="http://www.w3.org/2000/svg" xmlns:xlink="http://www.w3.org/1999/xlink" x="0px" y="0px"
	 viewBox="0 0 20.3 23" style="enable-background:new 0 0 20.3 23;" xml:space="preserve">
<style type="text/css">
	.st0{fill:#FFFFFF;}
</style>
<g id="Group_88" transform="translate(-1415 -21)">
	<g id="Group_87" transform="translate(-10 0)">
		<g id="Group_6" transform="translate(1425 21)">
			<path id="Path_55" class="st0" d="M9.7,23c-0.4-0.1-0.8-0.2-1.1-0.4c-0.9-0.4-1.5-1.2-1.7-2.1c0-0.2-0.1-0.2-0.3-0.2
				c-1.9,0-3.9,0-5.8,0c-0.4,0-0.7-0.2-0.8-0.6c0-0.2,0.1-0.4,0.2-0.6c1.4-1.5,2.3-3.3,2.7-5.3c0.1-0.7,0.2-1.4,0.2-2.1
				c0-0.7,0-1.4,0-2.1c0-3,1.9-5.6,4.7-6.6C8,3,8,3,8.1,3c0-0.3,0-0.7,0-1c0-1.1,0.9-2,2-2c1.1,0,2,0.9,2,2c0,0.3,0,0.7,0,1
				c0.8,0.3,1.6,0.7,2.3,1.2c1.5,1.1,2.4,2.8,2.6,4.7c0.1,0.9,0.1,1.7,0,2.6c-0.1,2.1,0.5,4.2,1.7,6c0.4,0.6,0.8,1.1,1.3,1.6
				c0.3,0.3,0.3,0.7,0,1c-0.1,0.1-0.2,0.2-0.3,0.2c-0.1,0-0.2,0-0.3,0c-1.9,0-3.9,0-5.8,0c-0.2,0-0.2,0.1-0.3,0.2
				c-0.3,1.3-1.4,2.2-2.7,2.4c0,0-0.1,0-0.1,0L9.7,23z M2.2,18.9h15.9c0,0,0,0,0-0.1c-0.1-0.1-0.1-0.2-0.2-0.2
				c-1.2-1.7-1.9-3.7-2.1-5.8c-0.1-0.9,0-1.9-0.1-2.8c0-0.4,0-0.9-0.1-1.3c-0.5-3.1-3.4-5.1-6.4-4.6C6.5,4.6,4.5,7,4.5,9.7
				c0,0.8,0,1.5,0,2.3c0,1.9-0.5,3.8-1.4,5.5C2.8,18,2.5,18.4,2.2,18.9z M8.2,20.3c0.3,0.8,1.1,1.4,1.9,1.3c0.8,0,1.6-0.6,1.8-1.3
				H8.2z M10.8,2.7c0-0.2,0-0.4,0-0.6c0-0.1,0-0.1,0-0.2c-0.1-0.3-0.3-0.6-0.6-0.6c-0.3,0-0.6,0.2-0.7,0.5c0,0.3,0,0.5,0,0.8H10.8z"
				/>
			<path id="Path_56" class="st0" d="M0,9.4c0.1-2.6,1.1-5,2.9-6.8c0.3-0.3,0.7-0.3,1,0c0.3,0.3,0.3,0.7,0,1c0,0,0,0-0.1,0.1
				C3,4.4,2.3,5.4,1.9,6.6c-0.4,1-0.6,2-0.6,3.1c0,0.3-0.1,0.5-0.4,0.6c-0.2,0.1-0.5,0.1-0.7-0.1C0.2,10.1,0.1,9.9,0,9.7
				C0,9.6,0,9.5,0,9.4z"/>
			<path id="Path_57" class="st0" d="M20.2,9.4c0,0.1,0,0.2,0,0.3c0,0.4-0.3,0.7-0.7,0.7c-0.4,0-0.7-0.3-0.7-0.7l0,0
				c0-1.3-0.3-2.5-0.8-3.7c-0.4-0.9-1-1.8-1.7-2.5c-0.3-0.2-0.3-0.7-0.1-1c0.1-0.1,0.1-0.1,0.2-0.2c0.3-0.2,0.6-0.1,0.8,0.1
				c1.4,1.4,2.3,3.1,2.7,5C20.1,8.1,20.2,8.7,20.2,9.4L20.2,9.4z"/>
		</g>
	</g>
</g>
</svg>
