<svg xmlns="http://www.w3.org/2000/svg" width="24.931" height="24.93" viewBox="0 0 24.931 24.93">
  <g id="Group_34" data-name="Group 34" transform="translate(-299.502 -332.063)">
    <path id="Path_98" data-name="Path 98" d="M324.432,343.7v1.655a1.514,1.514,0,0,0-.046.212,11.75,11.75,0,0,1-.792,3.466,12.47,12.47,0,0,1-12.912,7.9,12.17,12.17,0,0,1-5.056-1.671,12.431,12.431,0,0,1-6-12.456,12.479,12.479,0,0,1,10.49-10.6c.342-.052.686-.094,1.029-.14H312.8c.3.037.591.07.885.113a12.488,12.488,0,0,1,10.607,10.468C324.345,343,324.386,343.347,324.432,343.7Zm-12.476,11.2A10.374,10.374,0,1,0,301.6,344.509,10.376,10.376,0,0,0,311.956,354.9Z" transform="translate(0 0)" fill="#8b8b8b"/>
    <path id="Path_99" data-name="Path 99" d="M309.524,344.246q0-1.787,0-3.576a1.289,1.289,0,0,1,.043-.406.624.624,0,0,1,1.017-.24c.98.705,1.954,1.418,2.932,2.128l2.064,1.5a.649.649,0,0,1,0,1.178q-2.459,1.787-4.918,3.571a1.27,1.27,0,0,1-.335.192.608.608,0,0,1-.794-.552c-.007-.088-.007-.178-.007-.267Z" transform="translate(0.39 0.303)" fill="#8b8b8b"/>
  </g>
</svg>
