<?xml version="1.0" encoding="utf-8"?>
<!-- Generator: Adobe Illustrator 24.3.0, SVG Export Plug-In . SVG Version: 6.00 Build 0)  -->
<svg version="1.1" id="Layer_1" xmlns="http://www.w3.org/2000/svg" xmlns:xlink="http://www.w3.org/1999/xlink" x="0px" y="0px"
	 viewBox="0 0 172 116.4" style="enable-background:new 0 0 172 116.4;" xml:space="preserve">
<style type="text/css">
	.st0{fill:#FAC548;}
</style>
<circle id="Ellipse_398" class="st0" cx="41" cy="41" r="41"/>
<g id="Group_1178" transform="translate(153.175 3338.682)">
	<path id="Path_6479" d="M18.8-3281.9l-29.6,18.9l-1.3-1.7c-2,1.1-2.3,1.8-1.6,3.8c1.5,4.6-2.1,10.4-7,11.3
		c-0.8,0.1-1.2,0.3-1.4,1.2c-1.3,5.3-5.4,7.8-10.8,6.6c-0.2,0-0.4,0-0.6,0c-3.5,6.8-4.7,7.4-12.3,6.1c-0.8,2.2-1.8,4.3-2.8,6.4
		c-1.8,3-4.9,3.8-8.2,3.4c-0.5-0.1-1.1,0.1-1.5,0.4c-2.8,3.6-8,4.2-11.6,1.4c-1.2-0.9-2.1-2.2-2.6-3.6c-0.1-0.1-0.2-0.2-0.3-0.4
		c-2.6,0.6-5.3,0.8-7.8-0.7c-2.4-1.4-4.1-3.7-4.6-6.4c-3.1,1-6.1,1-8.9-0.9c-2.6-1.8-4.2-4.8-4.2-8c-1,0-1.9-0.1-2.9-0.3
		c-5-1-8.2-5.8-7.2-10.8c0.1-0.4,0.2-0.8,0.3-1.2c0.6-1.8,0-2.5-1.8-2.6c-0.3-0.1-0.6-0.2-0.9-0.3c-9.8-4.1-19.6-8.2-29.4-12.3
		c-0.3-0.1-0.7-0.3-1.1-0.6c0.2-0.6,0.4-1.1,0.6-1.6c6.7-16,13.4-32.1,20.2-48.1c0.4-0.8,0.5-1.7,1.9-1.1
		c9.9,4.2,19.9,8.4,29.8,12.5c0.3,0.1,0.5,0.3,0.7,0.4l-2.2,5.4c1.8-0.4,3.6-0.7,5.4-0.8c3,0,5.9,0.2,8.9,0.5
		c0.8,0.1,1.5,0.3,2.1,0.8c1.6,1.4,3,1,4.7,0.2c8.8-4,18-5.1,27.5-4c0.6,0.1,1.2,0.1,1.9,0.1c-0.2-0.5-0.3-0.8-0.5-1.1
		c-0.1-0.3-0.3-0.5-0.6-1l29.7-19L18.8-3281.9z M-79.9-3245.3c0.2,0,0.3,0,0.5,0c6-1.5,9.8,0.4,12.2,6.1c0.3,0.4,0.9,0.7,1.4,0.7
		c4.9-0.3,8.1,2.2,9.2,7.1c0.1,0.5,0.4,0.8,0.9,1c1.6,0.4,3-0.4,4.1-2.4c1-1.7,0.9-3.1-0.2-4.2c-0.9-0.7-1.1-1.9-0.6-2.9
		c0.4-1,1.5-1.5,2.6-1.2c2.4,0.5,4.8,0.9,7.2,1.5c1.4,0.4,3-0.2,3.8-1.4c1-1.1,1.1-2.7,0.2-3.8c-0.8-0.9-0.8-2.3,0-3.2
		c1-1,2.1-0.8,3.2-0.2c1.2,0.7,2.4,1.4,3.7,2c1.3,0.7,3,0.4,4-0.7c1.1-1.1,1.8-2.4,0.9-4.1c-0.6-0.9-0.5-2.2,0.3-3
		c0.8-0.8,2-1,2.9-0.3c0.3,0.1,0.6,0.2,0.9,0.3c1.9,0.4,3.5-0.7,4.5-3c0.8-1.8,0.5-2.6-1.4-3.8c-6.3-3.8-12.6-7.9-19.1-11.4
		c-6.6-3.6-13.5-6.8-20.4-10c-4-1.9-7.9-1.2-11.4,1.7c-5.2,4.2-10.6,3.6-16,0.6c-3.8-2.1-4.9-5.9-2.4-9.5c1.5-2,3.3-3.8,5.3-5.3
		c2.3-1.9,4.9-3.4,7.7-5.4c-0.9-0.3-1.9-0.5-2.9-0.7c-4.3-0.3-8.7,0.2-12.8,1.6c-0.5,0.2-1,0.6-1.2,1.1
		c-4.6,10.9-9.2,21.8-13.8,32.7c-0.4,0.9,1.5,4.2,2.4,4.3c0.3,0,0.5-0.1,0.7-0.2c6.6-2.6,12.1,0.4,13.3,7.4c0.2,1,0.6,1.2,1.5,1.2
		c3.3,0,6.4,1.9,7.9,4.9C-80.5-3247-80.2-3246.1-79.9-3245.3L-79.9-3245.3z M-9.5-3269.3l21.9-14l-25-39.1l-21.9,14L-9.5-3269.3z
		 M-112.1-3264.7l17.9-42.8l-23.3-9.8l-17.9,42.8L-112.1-3264.7z M-18.1-3265.4c0.8-0.9,1.5-1.8,2.4-2.6c0.7-0.5,0.8-1.4,0.3-2.1
		c0,0-0.1-0.1-0.1-0.1c-6.6-10.3-13.2-20.7-19.9-31c-0.4-0.6-1-1-1.7-1.2c-10.5-2.3-20.8-1.8-30.5,3c-5.4,2.7-10.3,6.4-15.4,9.8
		c-0.8,0.6-1.4,1.3-1.9,2.1c-1.2,1.7-1,2.8,0.9,3.7c3.7,1.8,7.2,2.3,10.7-0.6c4.5-3.8,9.7-4.3,15.2-2.4c7.4,2.8,14.5,6.3,21.3,10.3
		C-30.6-3272.9-24.5-3269.2-18.1-3265.4L-18.1-3265.4z M-71.6-3236.6c0.1-2.5-1.9-4.6-4.4-4.7c0,0,0,0,0,0c-2.5,0-4.6,1.9-4.7,4.5
		c0,2.5,2,4.6,4.5,4.7C-73.8-3232-71.7-3234-71.6-3236.6L-71.6-3236.6z M-99.4-3248.6c2.5-0.1,4.5-2.1,4.6-4.6
		c-0.1-2.5-2.2-4.5-4.7-4.6c-2.5,0.1-4.5,2.1-4.5,4.7C-104-3250.6-101.9-3248.6-99.4-3248.6C-99.4-3248.6-99.4-3248.6-99.4-3248.6z
		 M-89-3239c2.5-0.1,4.5-2.1,4.6-4.6c-0.1-2.5-2.2-4.5-4.7-4.6c-2.5,0.1-4.5,2.2-4.5,4.7c0,2.5,2,4.5,4.4,4.5
		C-89.1-3239-89.1-3239-89-3239L-89-3239z M-61.4-3230.4c0-2-1.6-3.6-3.5-3.6c-2,0.1-3.5,1.7-3.5,3.7c0,1.9,1.5,3.5,3.5,3.5
		c1.9,0,3.5-1.5,3.5-3.5C-61.4-3230.3-61.4-3230.4-61.4-3230.4L-61.4-3230.4z"/>
</g>
</svg>
