<?xml version="1.0" encoding="utf-8"?>
<!-- Generator: Adobe Illustrator 24.3.0, SVG Export Plug-In . SVG Version: 6.00 Build 0)  -->
<svg version="1.1" id="Layer_1" xmlns="http://www.w3.org/2000/svg" xmlns:xlink="http://www.w3.org/1999/xlink" x="0px" y="0px"
	 viewBox="0 0 119.7 116.4" style="enable-background:new 0 0 119.7 116.4;" xml:space="preserve">
<style type="text/css">
	.st0{fill:#FAC548;}
</style>
<circle id="Ellipse_399" class="st0" cx="41" cy="41" r="41"/>
<g id="Group_1179" transform="translate(345.125 3295.015)">
	<path id="Path_6480" d="M-232.9-3233.8c-6.2,1.4-12,3.4-18,4c-7.8,0.9-15.8,0.8-23.7,1c-2.6,0.1-4.7-1.1-4.5-4
		c0.2-2.9,2.3-3.6,4.9-3.5c10.1,0.4,20.2,0.2,30.1-2.3c0.1,0,0.2,0,0.3-0.1c10.5-2.7,10.9-3.2,10.9-14v-5.8
		c-8,1.5-15.8,3.4-23.7,4.3c-6,0.7-12.1,0.4-18.1,0.3c-3.1,0-4.8-1.7-4.5-4c0.3-2.9,2.4-3.6,5-3.5c10.9,0.5,21.7,0.2,32.2-3
		c3.2-1,6.2-2.7,9.3-4l0-1.4c-2-1.2-3.9-2.4-6-3.4c-2.1-1-4-2.1-3-4.9c0.8-2.2,2.9-2.9,5.7-1.7c2.3,1,4.5,2.2,6.5,3.6
		c2.7,1.9,4.3,5,4.1,8.3c-0.1,24.2-0.1,48.4,0,72.6c0,4.7-2.2,7.6-5.9,9.9c-6.1,3.7-12.9,5.4-19.9,6c-7.6,0.7-15.2,0.7-22.8,0.8
		c-3.7,0-5.3-1.4-5.3-3.8c0-2.6,1.9-3.8,5.8-3.6c10,0.3,20,0.2,29.8-2.4c0.3-0.1,0.6-0.1,0.9-0.2c9.4-2.7,9.8-3.2,9.8-13v-7.3
		c-4.6,1.3-9,2.7-13.5,3.6c-9.4,2.1-19,2.1-28.6,1.6c-2.5-0.1-4.3-1.3-4.1-4s2.1-3.6,4.6-3.5c9.5,0.3,19,0.4,28.3-1.9
		c3.7-1,7.3-2.3,10.9-3.8c1.8-0.7,2.6-2.1,2.5-4.2C-233-3225.4-232.9-3229.8-232.9-3233.8z"/>
	<path id="Path_6481" d="M-300.8-3268.6c2.9,1.4,5.8,2.9,8.8,4.1c3.2,1.3,4.5,2.8,3.8,5c-0.7,2.4-3,3.3-6.2,2.1
		c-3.3-1.2-6.5-2.7-9.5-4.6c-5.7-4.1-5.6-10.4-0.1-14.6c5.5-4.3,12.2-5.8,18.9-6.8c5.6-0.9,11.4-1,17.1-1.5c2.6-0.2,4.6,0.7,4.9,3.6
		c0.2,2.4-1.6,3.9-4.9,3.9c-8.7,0.1-17.3,0.8-25.5,3.8c-2.5,1.1-4.9,2.3-7.3,3.6L-300.8-3268.6z"/>
	<path id="Path_6482" d="M-304.2-3248.6c1.2,1,2.8,1.7,3.1,2.7c1,3.6,4,4.5,6.8,5.7c1.3,0.6,3,0.6,4,1.5c1.1,1,2.3,2.9,1.9,4
		c-0.4,1.3-2.6,3-3.7,2.8c-5.6-1-10.9-3-14.5-7.8c-1.5-1.9-2.4-4.3-0.9-6.7C-306.7-3247.3-305.5-3247.7-304.2-3248.6z"/>
	<path id="Path_6483" d="M-291.3-3206.3c-6.2-1.9-11.7-3.5-15.2-8.3c-1-1.3-1.5-3-1.4-4.6c0.2-1.3,1.6-3.2,2.7-3.5s3.7,0.8,4,1.8
		c1.1,3.6,4.1,4.5,6.9,5.7c1.3,0.6,3,0.6,4,1.5c1.1,1,2.2,2.8,1.9,4C-288.6-3208.3-290.3-3207.3-291.3-3206.3z"/>
	<path id="Path_6484" d="M-291.3-3181.3c-6.2-1.9-11.7-3.4-15.2-8.3c-1-1.3-1.5-2.9-1.4-4.6c0.2-1.3,1.6-3.2,2.7-3.5s3.7,0.8,4,1.8
		c1.1,3.6,4,4.5,6.9,5.7c1.3,0.6,3,0.6,4,1.5c1.1,1,2.2,2.8,2,4C-288.6-3183.3-290.3-3182.3-291.3-3181.3z"/>
</g>
</svg>
