<svg xmlns="http://www.w3.org/2000/svg" width="17.409" height="20" viewBox="0 0 17.409 20">
  <g id="Group_79" data-name="Group 79" transform="translate(-71.758 -414.325)">
    <path id="Path_120" data-name="Path 120" d="M79.871,434.325c-.43-.065-.865-.109-1.29-.2a8.536,8.536,0,0,1-4.333-2.354,8.66,8.66,0,0,1-2.461-4.659,1.209,1.209,0,1,1,2.333-.638,12.326,12.326,0,0,0,.517,1.693,6.318,6.318,0,0,0,8.286,3.216,6.261,6.261,0,0,0,3.291-3.269,6.01,6.01,0,0,0,.536-2.737,6.224,6.224,0,0,0-1.736-4.161,6.287,6.287,0,0,0-3.825-1.942c-.217-.03-.439-.031-.681-.046v.228c0,.672,0,1.343,0,2.015,0,.08-.038.2-.095.228a.3.3,0,0,1-.242-.056q-2.36-1.724-4.713-3.458c-.177-.13-.175-.214.006-.346q2.347-1.726,4.7-3.446a.33.33,0,0,1,.258-.06c.051.018.087.149.088.23.007.671,0,1.343,0,2.015v.2c.51.061,1,.094,1.477.182a8.68,8.68,0,0,1,7.036,7.077,8.771,8.771,0,0,1-6.863,10.117c-.324.068-.657.093-.986.14-.057.008-.112.024-.168.036Z" transform="translate(0 0)" fill="#fff"/>
  </g>
</svg>
