<?xml version="1.0" encoding="utf-8"?>
<!-- Generator: Adobe Illustrator 24.3.0, SVG Export Plug-In . SVG Version: 6.00 Build 0)  -->
<svg version="1.1" id="Layer_1" xmlns="http://www.w3.org/2000/svg" xmlns:xlink="http://www.w3.org/1999/xlink" x="0px" y="0px"
	 viewBox="0 0 19.4 17.2" style="enable-background:new 0 0 19.4 17.2;" xml:space="preserve">
<style type="text/css">
	.st0{fill:#E2B441;}
</style>
<path id="Path_105" class="st0" d="M0,8.3c0.1,0.2,0.3,0.4,0.4,0.6c2.2,2.3,4.5,4.6,6.7,6.9c0.2,0.3,0.6,0.4,1,0.3
	c0.4-0.1,0.6-0.5,0.5-0.9c0-1.1,0-2.2,0-3.3c0,0,0,0,0.1,0c1.7-0.1,3.4,0.1,4.9,0.8c1.8,0.8,3.3,2.2,4.2,4c0.1,0.4,0.5,0.6,0.9,0.6
	c0.4,0,0.7-0.3,0.7-0.7c0.1-1.4,0-2.8-0.3-4.2c-1.2-4.7-5.4-8-10.2-8c-0.1,0-0.1,0-0.2,0V3.8c0-0.9,0-1.8,0-2.7C8.7,0.6,8.5,0.2,8,0
	H7.6C7.4,0.1,7.3,0.2,7.2,0.3C4.9,2.7,2.7,5,0.4,7.3C0.3,7.5,0.1,7.7,0,7.9L0,8.3z"/>
</svg>
