<?xml version="1.0" encoding="utf-8"?>
<!-- Generator: Adobe Illustrator 24.3.0, SVG Export Plug-In . SVG Version: 6.00 Build 0)  -->
<svg version="1.1" id="Layer_1" xmlns="http://www.w3.org/2000/svg" xmlns:xlink="http://www.w3.org/1999/xlink" x="0px" y="0px"
	 viewBox="0 0 48.9 49" style="enable-background:new 0 0 48.9 49;" xml:space="preserve">
<style type="text/css">
	.st0{fill:#FFFFFF;}
</style>
<g id="Group_29" transform="translate(-65.988 -132.944)">
	<path id="Path_76" class="st0" d="M114.8,134.8c-0.1,0.9-0.2,1.8-0.4,2.7c-0.9,6.2-3.2,12.2-6.9,17.3c-1.3,1.6-2.7,3.2-4.3,4.5
		c-0.1,0.1-0.2,0.2-0.3,0.3c0.4,0.9,0.7,1.8,0.9,2.7c0.5,2.2-0.1,4.4-1.7,6c-1.5,1.7-3.5,2.9-5.7,3.6c-1.3,0.5-2.7,0.8-4.1,0.8
		c-0.4,0.1-0.8-0.2-1-0.6c-0.2-0.4-0.1-0.8,0.2-1.1c1-1,1.6-2.4,1.7-3.8c0.1-1.4-0.1-1.6-1.4-1.1c-1.1,0.4-2.3,0.8-3.4,1.1
		c-0.6,0.1-1.2,0.1-1.9,0.1c-0.4,0.6-0.8,1.3-1.4,1.9c-1.2,1.3-2.7,2.2-4.4,2.6c-1.5,0.4-2.9,0.6-4.4,0.9c-0.9,0.1-1.4-0.3-1.3-1.1
		c0.2-2.2,0.7-4.4,1.6-6.5c0.7-1.6,2-3,3.6-3.8c0.1,0,0.2-0.1,0.3-0.1c0,0,0.1-0.1,0.1-0.1c-0.3-0.7-0.2-1.6,0.1-2.3
		c0.4-1.2,0.8-2.4,1.2-3.6c0.2-0.4,0.1-0.6-0.4-0.7c-1.5-0.2-3.1,0.3-4.3,1.2c-0.2,0.2-0.4,0.3-0.6,0.5c-0.3,0.2-0.7,0.3-1,0.1
		c-0.4-0.1-0.6-0.5-0.5-0.9c0.1-1,0.2-1.9,0.4-2.9c0.5-2.5,1.7-4.7,3.5-6.5c1.5-1.7,3.7-2.6,5.9-2.3c0.8,0.2,1.7,0.4,2.5,0.7
		c0.3,0.1,0.6,0.3,0.8,0.4c0.8-0.8,1.5-1.6,2.2-2.4c3.2-3.1,7-5.4,11.1-6.9c3.6-1.4,7.3-2.2,11.2-2.6c0.1,0,0.2,0,0.4-0.1h1.8V134.8
		z M110.4,145.4c-0.1-0.1-0.1-0.2-0.2-0.3c-2.5-2.5-5-5-7.5-7.5c-0.1-0.2-0.4-0.2-0.6-0.1c-0.9,0.4-1.7,0.7-2.6,1.1
		c-3,1.4-5.7,3.3-8.1,5.6c-2.8,2.9-5.1,6.2-6.9,9.8c-0.2,0.2-0.1,0.6,0.1,0.8c2.7,2.7,5.4,5.4,8.1,8.1c0.7,0.7,0.4,0.6,1.3,0.2
		c3.6-1.7,6.8-4,9.7-6.8c2.9-3,5.2-6.6,6.6-10.6C110.4,145.5,110.4,145.5,110.4,145.4L110.4,145.4z M82.9,152.8l3.9-6.4
		c-1.9-1.2-4.4-1-6,0.6c-1.4,1.3-2.4,2.9-3,4.7c-0.2,0.6-0.3,1.1-0.5,1.8C79,152.5,81,152.3,82.9,152.8L82.9,152.8z M94.4,170.5
		c2.6-0.5,4.9-1.8,6.6-3.7c1.4-1.7,1.5-4,0.4-5.8l-6.4,3.9C95.5,166.8,95.3,168.8,94.4,170.5z M77.2,170.6c0.1,0,0.2,0,0.2,0
		c1.4-0.3,2.7-0.6,4-1.1c1.6-0.5,2.9-1.7,3.5-3.3c0.1-0.2,0-0.4-0.1-0.5c-0.9-0.9-1.8-1.9-2.8-2.8c-0.1-0.1-0.3-0.1-0.4-0.1
		c-1.2,0.4-2.1,1.2-2.8,2.3c-0.7,1.3-1.2,2.8-1.5,4.3C77.3,169.8,77.2,170.2,77.2,170.6L77.2,170.6z M111.2,143.2
		c0.8-2.7,1.4-5.4,1.7-8.2c-2.8,0.3-5.5,0.9-8.2,1.7L111.2,143.2z M83.5,156.4c-0.3,1.1-0.6,2.1-1,3.1c-0.2,0.6-0.1,1.2,0.4,1.6
		c1.1,1.1,2.2,2.2,3.3,3.3c1.4,1.4,1.1,1.2,2.8,0.7c0.8-0.2,1.6-0.5,2.4-0.8L83.5,156.4z"/>
	<path id="Path_77" class="st0" d="M66.8,173.9c-0.3-0.2-0.7-0.4-0.8-0.7c-0.1-0.3-0.1-0.6,0-0.9c0-0.1,0.1-0.2,0.2-0.3
		c2.1-2.1,4.1-4.1,6.2-6.2c0.2-0.3,0.6-0.5,1-0.4c0.5,0.1,0.8,0.6,0.7,1.1c0,0.1-0.1,0.2-0.1,0.3c-0.1,0.1-0.2,0.3-0.3,0.4
		c-2,2.1-4.1,4.1-6.1,6.1C67.4,173.5,67.1,173.7,66.8,173.9z"/>
	<path id="Path_78" class="st0" d="M66.4,180.7c0.1-0.2,0.2-0.4,0.4-0.6c2.1-2.1,4.2-4.2,6.3-6.3c0.3-0.4,0.9-0.5,1.4-0.2
		c0,0,0.1,0,0.1,0.1c0.4,0.4,0.4,1,0,1.4c0,0-0.1,0.1-0.1,0.1c-2.1,2.1-4.2,4.2-6.3,6.3c-0.3,0.3-0.7,0.5-1.1,0.3
		C66.5,181.6,66.3,181.2,66.4,180.7z"/>
	<path id="Path_79" class="st0" d="M73.9,181c0.1-0.3,0.3-0.6,0.5-0.9c2.1-2.1,4.2-4.2,6.2-6.2c0.3-0.4,0.9-0.5,1.4-0.2
		c0.4,0.3,0.5,0.9,0.2,1.4c-0.1,0.1-0.1,0.2-0.2,0.2c-2.1,2.1-4.2,4.2-6.2,6.2c-0.3,0.4-0.8,0.5-1.2,0.3
		C74.3,181.6,74.1,181.3,73.9,181z"/>
	<path id="Path_80" class="st0" d="M75.8,159.5c-0.1,0.3-0.3,0.6-0.5,0.8c-0.8,0.9-1.7,1.7-2.6,2.6c-0.3,0.4-0.9,0.5-1.4,0.1
		c0,0-0.1-0.1-0.1-0.1c-0.4-0.4-0.3-1,0.1-1.4c0,0,0,0,0,0c0.8-0.9,1.7-1.7,2.6-2.6c0.3-0.3,0.7-0.4,1.1-0.2
		C75.3,159,75.6,159.2,75.8,159.5z"/>
	<path id="Path_81" class="st0" d="M89.3,173c-0.1,0.3-0.3,0.6-0.5,0.8c-0.8,0.9-1.7,1.7-2.6,2.6c-0.3,0.4-1,0.5-1.4,0.1
		c0,0,0,0-0.1-0.1c-0.4-0.4-0.4-1,0-1.4c0,0,0,0,0.1,0c0.9-0.9,1.7-1.7,2.6-2.6c0.3-0.3,0.7-0.4,1.1-0.2
		C88.8,172.5,89.1,172.7,89.3,173z"/>
	<path id="Path_82" class="st0" d="M100.1,152.2c-2.6-0.2-4.6-2.4-4.5-5.1c0.2-2.6,2.4-4.6,5.1-4.5c2.6,0.2,4.5,2.3,4.5,4.9
		c0,2.6-2.2,4.7-4.8,4.6C100.3,152.2,100.2,152.2,100.1,152.2z M100.4,150.3c1.6,0,2.8-1.3,2.9-2.8c0-1.6-1.3-2.8-2.8-2.9
		c-1.6,0-2.8,1.3-2.9,2.8c0,0,0,0,0,0C97.5,149,98.8,150.2,100.4,150.3C100.3,150.3,100.3,150.3,100.4,150.3L100.4,150.3z"/>
	<path id="Path_83" class="st0" d="M93.7,155.1c-0.8,0-1.3-0.8-0.9-1.4c0.5-0.6,1.1-1.2,1.7-1.7c0.4-0.3,1-0.1,1.3,0.3
		c0.2,0.3,0.2,0.7,0,0.9c-0.5,0.6-1.1,1.2-1.7,1.7C93.9,155.1,93.8,155.1,93.7,155.1z"/>
	<path id="Path_84" class="st0" d="M91.9,156.9c0,0.5-0.5,0.9-1,0.9c-0.5,0-0.9-0.4-0.9-1c0-0.5,0.4-0.9,0.9-1
		C91.4,155.9,91.8,156.4,91.9,156.9z"/>
</g>
</svg>
