<?xml version="1.0" encoding="utf-8"?>
<!-- Generator: Adobe Illustrator 24.3.0, SVG Export Plug-In . SVG Version: 6.00 Build 0)  -->
<svg version="1.1" id="Layer_1" xmlns="http://www.w3.org/2000/svg" xmlns:xlink="http://www.w3.org/1999/xlink" x="0px" y="0px"
	 viewBox="0 0 500 500" style="enable-background:new 0 0 500 500;" xml:space="preserve">
<style type="text/css">
	.st0{fill:#FAC548;}
</style>
<g>
	<path class="st0" d="M468.5,161.4c-0.9,25.1-0.9,50.3-2.9,75.3c-4.2,54.7-24,103.7-57.6,146.9c-31.2,40-69.5,71.9-115.1,94.3
		c-12.5,6.1-26.3,10.4-40,13.2c-13.9,2.9-26.8-3.9-39.1-9.8c-70.5-33.8-124.4-84.6-157.5-155.9C44,299,35.5,271,34.2,241.8
		c-2-46.6-1.9-93.2-2.7-139.8c-0.1-6.3,3-9.6,8.9-11C110.8,73.1,177.4,45.5,241,10.5c6.3-3.5,11.4-3.2,17.6,0.2
		c51.3,28.3,104.7,51.6,160.7,69c12.7,4,25.6,7.6,38.5,10.8c6.9,1.8,10.1,5.3,10,12.6c-0.3,19.4-0.1,38.8-0.1,58.2
		C468,161.4,468.2,161.4,468.5,161.4z M448.7,163.9c0.4,0,0.8,0,1.1,0c0-14.4,0-28.8,0-43.3c0-15.8,0.4-14-12.2-17.1
		c-3.3-0.8-6.6-1.7-9.8-2.7c-59-18-116-41.1-170.2-70.6c-5.8-3.2-10.2-3-15.9,0.1c-58.8,32.2-120.4,57.4-185.4,74.5
		c-4.8,1.3-6.9,3.7-6.8,8.8c0.2,16.8-0.4,33.6,0.2,50.3c1,30.3,0.5,60.9,4.5,90.9c8,59.2,37.1,108.4,79.2,150.1
		c26.3,26.1,57.2,45.5,90.5,61.5c17.1,8.2,32.9,8.8,50.3,0.6c43.5-20.5,81.7-47.7,112.6-84.9c37-44.5,58.2-95.5,61.8-153.2
		C449.9,207.5,448.7,185.7,448.7,163.9z"/>
	<path class="st0" d="M435.5,171.5c-1,22-1.1,44-3.2,65.9c-3.3,34.5-14.3,66.9-31.4,97.1c-30.4,53.7-75.6,90.7-130.3,117.7
		c-14.7,7.3-28.2,7-42.6-0.3c-30.4-15.3-59.1-33.2-83.3-57.1c-39.3-38.9-65.4-85.3-75.4-140.2c-6.4-35.1-4.5-70.5-4.8-105.8
		c0-2.4,0-4.7,0-7.1c0-22.9-0.1-23.1,22.2-29.8C139.5,96,190.4,75.4,238.9,49.4c7.5-4,13.6-4.2,21.2-0.1
		C312,77.1,366.4,98.8,423,115c10.1,2.9,11.6,5.1,11.7,15.6c0,13.6,0,27.3,0,40.9C434.9,171.5,435.2,171.5,435.5,171.5z
		 M417.2,185.4c-0.5,0-1-0.1-1.4-0.1c0-15.7-0.2-31.4,0.1-47.2c0.1-5.2-2-7.5-6.7-8.9c-53.1-15.8-104-36.9-153.5-61.6
		c-3.3-1.6-8.8-1.7-12.1-0.1c-49.5,24.8-100.4,45.9-153.5,61.7c-5.1,1.5-7,4.1-6.9,9.5c0.3,25.4,0,50.8,0.2,76.2
		c0.2,31.9,6.9,62.5,20.5,91.2c28.4,60.3,74.7,102.6,134.5,130.9c8.4,4,15.7,3.1,23.8-0.6c45.8-21.1,83.1-52.4,112.2-93.4
		c20-28.2,33.4-59.4,38-93.6C415.2,228.3,415.7,206.8,417.2,185.4z"/>
	<path class="st0" d="M230.1,235.1c6-6.3,10.4-11.1,14.9-15.7c14.6-14.9,29.4-29.8,44-44.8c12-12.2,31.3-12.8,43.1-1.1
		c12.2,12.1,12.1,30-0.4,42.5c-26.6,26.4-53.2,52.7-79.9,78.9c-12.1,11.9-29.9,12.2-42.3,0.5c-14.2-13.5-28.2-27.3-42.1-41.2
		c-12.2-12.3-12.9-29.4-1.9-40.8c11.8-12.2,30.3-13,43.1-1.1C216,219.1,222.4,226.8,230.1,235.1z M324.3,193.8
		c-2.4-3.4-3.9-7-6.5-8.9c-6.5-4.7-11.8-1-16.5,3.8c-20.8,20.8-41.5,41.5-62.3,62.3c-6.4,6.3-10.3,6.3-16.7,0.1
		c-8.6-8.4-16.9-17.2-25.7-25.4c-5.9-5.6-12.6-5.3-17.4,0c-4.2,4.6-3.6,10.1,2,15.8c13.1,13.2,26.3,26.4,39.6,39.5
		c6.9,6.9,13.5,7.1,20.5,0.2c25.5-25.3,50.9-50.7,76.2-76.2C320.1,202,321.7,198,324.3,193.8z"/>
	<path class="st0" d="M225.5,395.8c-0.1,8.6-6.5,13.5-12.3,9.7c-12.9-8.4-25.2-17.8-37-27.6c-1.8-1.5-0.8-8.5,1.2-11.6
		c1.1-1.8,7.6-2.5,9.9-0.9c12,8,23.4,16.7,34.8,25.4C224,392.2,224.9,394.8,225.5,395.8z"/>
	<path class="st0" d="M163.8,340.7c4.2,5.7,9.1,9.5,8.5,12.4c-0.6,3.4-5.5,7.9-9.2,8.5c-4.7,0.8-9.7-3.3-8.7-8.7
		C155.2,349.3,159.4,346.3,163.8,340.7z"/>
</g>
</svg>
