<svg xmlns="http://www.w3.org/2000/svg" width="22.556" height="22.548" viewBox="0 0 22.556 22.548">
  <g id="Group_93" data-name="Group 93" transform="translate(-1157.748 -258.519)">
    <path id="Path_108" data-name="Path 108" d="M58,78.708V63.031a.6.6,0,0,0,.037-.1,2.9,2.9,0,0,1,2.917-2.453c.587,0,1.174,0,1.762,0h.217c0-.372,0-.709,0-1.046a.678.678,0,0,1,.392-.639.7.7,0,0,1,1.015.629c.009.349,0,.7,0,1.046H74.21c0-.368-.01-.726,0-1.083a.7.7,0,0,1,.688-.668.707.707,0,0,1,.715.664c.008.124,0,.249,0,.374,0,.239,0,.477,0,.723.7,0,1.37,0,2.038,0a2.9,2.9,0,0,1,2.893,2.883c.006,5,.013,10.009-.005,15.014a2.779,2.779,0,0,1-1.794,2.663,5.783,5.783,0,0,1-.753.225H60.555a1,1,0,0,0-.121-.04,2.882,2.882,0,0,1-2.328-2.092C58.062,78.992,58.035,78.848,58,78.708ZM69.279,66.465H59.788c-.333,0-.379.045-.379.381q0,5.691,0,11.382a1.5,1.5,0,0,0,1.616,1.624H77.519a1.5,1.5,0,0,0,1.623-1.618q0-5.691,0-11.382c0-.347-.041-.387-.395-.387Z" transform="translate(1099.748 199.805)" fill="#fff"/>
    <g id="Group_61" data-name="Group 61" transform="translate(1070.322 365.738)">
      <path id="Path_109" data-name="Path 109" d="M94-94.446a.553.553,0,0,1,.589-.422c.061,0,.122-.011.182-.016q1.154-.1,2.308-.207a.125.125,0,0,0,.119-.089c.337-.795.679-1.587,1.016-2.382a.5.5,0,0,1,.479-.347.5.5,0,0,1,.48.346c.336.792.676,1.582,1.012,2.374a.138.138,0,0,0,.131.1q1.264.11,2.527.226a.831.831,0,0,1,.249.053.494.494,0,0,1,.117.834c-.5.442-1,.879-1.5,1.318-.156.137-.31.276-.47.409a.134.134,0,0,0-.05.156c.194.841.383,1.683.576,2.525a.493.493,0,0,1-.184.554.492.492,0,0,1-.583.007q-1.111-.666-2.223-1.331a.13.13,0,0,0-.156,0q-1.11.668-2.223,1.331a.5.5,0,0,1-.676-.09.5.5,0,0,1-.1-.448c.19-.839.38-1.678.574-2.516a.182.182,0,0,0-.068-.208c-.618-.537-1.232-1.079-1.849-1.616A.82.82,0,0,1,94-94.263ZM96.234-89.6l.091-.051c.684-.409,1.369-.815,2.05-1.228a.56.56,0,0,1,.635,0c.679.411,1.361.816,2.042,1.223l.1.057c-.005-.029-.007-.041-.009-.052q-.274-1.209-.549-2.418a.516.516,0,0,1,.175-.543q.9-.787,1.8-1.576l.1-.093c-.038-.007-.056-.011-.073-.013-.809-.074-1.617-.149-2.427-.219a.537.537,0,0,1-.487-.354c-.312-.739-.629-1.476-.944-2.213-.012-.028-.026-.056-.047-.1l-.236.55q-.377.883-.754,1.767a.507.507,0,0,1-.436.343c-.754.071-1.508.137-2.262.206l-.295.03.089.075q.91.8,1.82,1.594a.513.513,0,0,1,.179.534q-.192.852-.387,1.7C96.352-90.124,96.295-89.869,96.234-89.6Z" transform="translate(0 0)" fill="#fff"/>
    </g>
  </g>
</svg>
