<?xml version="1.0" encoding="utf-8"?>
<!-- Generator: Adobe Illustrator 24.3.0, SVG Export Plug-In . SVG Version: 6.00 Build 0)  -->
<svg version="1.1" id="Layer_1" xmlns="http://www.w3.org/2000/svg" xmlns:xlink="http://www.w3.org/1999/xlink" x="0px" y="0px"
	 viewBox="0 0 23 23" style="enable-background:new 0 0 23 23;" xml:space="preserve">
<style type="text/css">
	.st0{fill:#FFFFFF;}
</style>
<g id="Group_89" transform="translate(-1539 -21)">
	<g id="Group_7" transform="translate(1483.401 -35.43)">
		<path id="Path_58" class="st0" d="M75.8,79.4H57.4c-0.2-0.1-0.4-0.1-0.6-0.2c-0.8-0.4-1.3-1.1-1.2-2c0-4.1,0-8.1,0-12.2
			c0-0.1,0-0.2,0-0.3c0-0.9,0.6-1.7,1.5-1.9c0.4-0.1,0.9-0.1,1.3-0.1c0.7,0,1.4-0.1,2-0.5c3.1-1.8,6.1-3.6,9.2-5.4
			c0.6-0.4,1.3-0.5,1.9-0.2c0.5,0.2,0.9,0.6,1.1,1c0.9,1.6,1.9,3.2,2.8,4.8c0.1,0.2,0.3,0.3,0.5,0.3c0.2,0,0.4,0.1,0.5,0.2
			c0.7,0.4,1.1,1.1,1.1,1.9c0,0.9,0,1.8,0,2.7c0,0.2,0.1,0.5,0.3,0.6c0.4,0.2,0.7,0.6,0.7,1v3.7c0,0,0,0.1-0.1,0.1
			c-0.1,0.4-0.4,0.8-0.8,1c-0.1,0-0.2,0.2-0.2,0.3c0,1,0,1.9,0,2.9c0,0.7-0.3,1.4-0.9,1.8C76.4,79.2,76.1,79.3,75.8,79.4z
			 M76.5,67.9c0-0.1,0-0.1,0-0.2c0-1,0-2,0-3c0-0.1,0-0.2,0-0.3c-0.1-0.5-0.6-0.8-1.1-0.8H57.8c0,0-0.1,0-0.1,0
			c-0.4,0-0.7,0.3-0.9,0.6c-0.1,0.2-0.1,0.4-0.1,0.6c0,4.1,0,8.1,0,12.2c0,0.1,0,0.2,0,0.3c0,0.4,0.3,0.7,0.7,0.8
			c0.2,0.1,0.4,0.1,0.6,0.1c3.3,0,6.6,0,9.8,0c2.5,0,5,0,7.6,0c0.6,0,1.1-0.4,1.2-1c0-0.1,0-0.1,0-0.2c0-0.9,0-1.8,0-2.8
			c0-0.1,0-0.1,0-0.2h-0.3c-0.9,0-1.9,0-2.8,0c-1.7,0-3.2-1.3-3.2-3.1s1.3-3.2,3.1-3.2c1,0,2,0,2.9,0L76.5,67.9z M75.1,73.1
			c0.6,0,1.2,0,1.8,0c0.4,0,0.6-0.2,0.6-0.6c0-1,0-2,0-3c0-0.3-0.2-0.6-0.5-0.6c-0.1,0-0.1,0-0.2,0c-1.3,0-2.5,0-3.8,0
			c-1.1,0.1-2,1.2-1.8,2.3c0.1,1.1,1,1.9,2.1,1.8C74,73.2,74.6,73.1,75.1,73.1z M71.7,58c-0.3-0.5-0.9-0.7-1.4-0.4
			c0,0-0.1,0-0.1,0.1c-2.8,1.6-5.6,3.3-8.4,4.9c0,0-0.1,0.1-0.2,0.1c0.6,0,1.2,0,1.8,0c0.1,0,0.3,0,0.4-0.1c2.6-1.5,5.1-3,7.7-4.5
			C71.6,58.1,71.6,58,71.7,58z M72.2,58.9l-6.4,3.7c0.1,0,0.1,0.1,0.2,0.1c0.5,0,1,0,1.5,0c0.1,0,0.3,0,0.4-0.1
			c1.5-0.9,3.1-1.8,4.6-2.7c0.1,0,0.1-0.1,0.2-0.1L72.2,58.9z M70,62.6L70,62.6l4.4,0l-1.1-2L70,62.6z"/>
		<path id="Path_59" class="st0" d="M73.4,72.1c-0.6,0-1.1-0.5-1.1-1c0,0,0,0,0,0c0-0.6,0.5-1,1.1-1c0.6,0,1,0.5,1,1.1l0,0
			C74.4,71.6,74,72.1,73.4,72.1C73.4,72.1,73.4,72.1,73.4,72.1z"/>
	</g>
</g>
</svg>
