<svg xmlns="http://www.w3.org/2000/svg" width="22.556" height="23.481" viewBox="0 0 22.556 23.481">
  <g id="Group_91" data-name="Group 91" transform="translate(-771.55 -258.519)">
    <path id="Path_108" data-name="Path 108" d="M58,78.708V63.031a.6.6,0,0,0,.037-.1,2.9,2.9,0,0,1,2.917-2.453c.587,0,1.174,0,1.762,0h.217c0-.372,0-.709,0-1.046a.678.678,0,0,1,.392-.639.7.7,0,0,1,1.015.629c.009.349,0,.7,0,1.046H74.21c0-.368-.01-.726,0-1.083a.7.7,0,0,1,.688-.668.707.707,0,0,1,.715.664c.008.124,0,.249,0,.374,0,.239,0,.477,0,.723.7,0,1.37,0,2.038,0a2.9,2.9,0,0,1,2.893,2.883c.006,5,.013,10.009-.005,15.014a2.779,2.779,0,0,1-1.794,2.663,5.783,5.783,0,0,1-.753.225H60.555a1,1,0,0,0-.121-.04,2.882,2.882,0,0,1-2.328-2.092C58.062,78.992,58.035,78.848,58,78.708ZM69.279,66.465H59.788c-.333,0-.379.045-.379.381q0,5.691,0,11.382a1.5,1.5,0,0,0,1.616,1.624H77.519a1.5,1.5,0,0,0,1.623-1.618q0-5.691,0-11.382c0-.347-.041-.387-.395-.387Z" transform="translate(713.55 199.805)" fill="#fff"/>
    <text id="_7" data-name="7" transform="translate(780 278)" fill="#fff" font-size="12" font-family="Poppins-SemiBold, Poppins" font-weight="600"><tspan x="0" y="0">7</tspan></text>
  </g>
</svg>
