<?xml version="1.0" encoding="utf-8"?>
<!-- Generator: Adobe Illustrator 24.3.0, SVG Export Plug-In . SVG Version: 6.00 Build 0)  -->
<svg version="1.1" id="Layer_1" xmlns="http://www.w3.org/2000/svg" xmlns:xlink="http://www.w3.org/1999/xlink" x="0px" y="0px"
	 viewBox="0 0 22 22" style="enable-background:new 0 0 22 22;" xml:space="preserve">
<style type="text/css">
	.st0{fill:#FFFFFF;}
</style>
<g>
	<path class="st0" d="M11.5,19.2c-2.4-0.3-4.5-0.5-6.7-0.8c-0.5-0.1-0.9-0.2-1.4-0.3c-1,0-1.3-0.4-1.2-1.4c0.1-0.6,0-1.2,0-1.9
		c0-2.5,1.1-4,3.5-4.9c0.5-0.2,1.1-0.3,1.6-0.4c2.7-0.1,5.4-0.5,8,0.4c1.5,0.5,2.6,1.4,3.2,3.1c-2.1-1.3-4.1-1.4-5.9,0.1
		C10.8,14.8,10.7,16.8,11.5,19.2z"/>
	<path class="st0" d="M10.4,8.8c-2.2,0-4.1-1.8-4.1-4c0-2.1,1.9-4,4.1-4c2.3,0,4.3,1.7,4.3,3.9C14.7,7,12.9,8.8,10.4,8.8z"/>
	<path class="st0" d="M15.7,12.8c2.2,0,4.1,2,4,4.3c0,2.2-1.9,4.1-4.2,4.1c-2.2,0-4.1-1.9-4.1-4.1C11.5,14.6,13.3,12.8,15.7,12.8z
		 M15.2,17.3c0,0.5,0,0.9,0,1.3c0,0.2,0.2,0.4,0.4,0.6c0.1-0.2,0.4-0.4,0.4-0.6c0.1-0.4,0-0.8,0-1.3c0.7,0,1.3,0,1.8,0
		c0-0.3,0-0.6,0-0.9c-0.6,0-1.2,0-1.8,0c0-0.5,0-0.9,0-1.3c0-0.2-0.3-0.3-0.4-0.5c-0.1,0.2-0.3,0.3-0.4,0.5c-0.1,0.4,0,0.9,0,1.3
		c-0.7,0-1.3,0.1-1.9,0.1c0,0.3,0.1,0.6,0.1,0.9C14,17.3,14.5,17.3,15.2,17.3z"/>
</g>
</svg>
