<?xml version="1.0" encoding="utf-8"?>
<!-- Generator: Adobe Illustrator 24.3.0, SVG Export Plug-In . SVG Version: 6.00 Build 0)  -->
<svg version="1.1" id="Layer_1" xmlns="http://www.w3.org/2000/svg" xmlns:xlink="http://www.w3.org/1999/xlink" x="0px" y="0px"
	 viewBox="0 0 231 299.9" style="enable-background:new 0 0 231 299.9;" xml:space="preserve">
<style type="text/css">
	.st0{fill:#FFFFFF;}
</style>
<path class="st0" d="M143,5.3c1.2,7.9,1.9,15,3.5,21.9c4.4,18.6,14.7,34,26.2,48.8c11,14.2,23.1,27.7,32.5,42.9
	c22.6,36.3,28.1,75.2,8.7,114.4c-19.2,39.1-51.8,59.6-95.7,61.2c-48.8,1.7-93.1-31.6-106.2-78C1.3,177.9,9.8,143,35.7,112.7
	c6-7,13.8-12.4,20.9-18.4c1.3-1.1,3-1.7,5.5-3.1c1.1,20.6,6.4,38.1,26,48.8c0.1-2.1,0.3-3.3,0.3-4.5c0.2-29.2,3.7-57.7,15.7-84.7
	c7.4-16.6,17.9-30.7,32.7-41.4C138.6,8,140.6,6.8,143,5.3z M166.6,138.7c-0.5,0-1,0-1.4-0.1c-1.9,2.9-3.5,5.9-5.6,8.6
	c-12.3,15.8-29.2,24.6-48.1,29.2c-22,5.4-35.7,20.6-35.7,41.8c0,23.9,21.5,41.8,42.7,39.8c22-2.1,36.7-14.4,44.9-34.6
	c8.3-20.4,8.4-41.8,6.2-63.3C168.8,153,167.6,145.9,166.6,138.7z"/>
</svg>
