<?xml version="1.0" encoding="utf-8"?>
<!-- Generator: Adobe Illustrator 24.3.0, SVG Export Plug-In . SVG Version: 6.00 Build 0)  -->
<svg version="1.1" id="Layer_1" xmlns="http://www.w3.org/2000/svg" xmlns:xlink="http://www.w3.org/1999/xlink" x="0px" y="0px"
	 viewBox="0 0 22 22" style="enable-background:new 0 0 22 22;" xml:space="preserve">
<style type="text/css">
	.st0{fill:#FFFFFF;}
</style>
<path class="st0" d="M1.9,5.4C2,3.3,1.6,3.6,3.7,3c2.2-0.7,4.5-1.3,6.7-2c0.4-0.1,0.9-0.1,1.2,0c2.5,0.7,5,1.5,7.4,2.2
	c0.6,0.2,1,0.3,1,1.1c-0.1,3.6-0.3,7.2-1.8,10.6c-0.7,1.5-1.6,3.1-2.8,4.2c-3.8,3.6-7.8,2-10.2-1.2C3.2,15,2.5,11.6,2.2,8.2
	C2.1,7.3,2,6.3,1.9,5.4z M11,3.3C9,3.9,7,4.5,5,5.1c-0.3,0.1-0.7,0.6-0.6,1c0.1,1.6,0.4,3.1,0.5,4.5c2.1,0,4.1,0,6.1,0
	C11,8,11,5.7,11,3.3z M11,18.4c2.6,0.4,5.3-3.2,6-7.8c-2,0-3.9,0-5.9,0c0,0.2-0.1,0.4-0.1,0.5C11,13.6,11,16,11,18.4z"/>
</svg>
