<?xml version="1.0" encoding="utf-8"?>
<!-- Generator: Adobe Illustrator 24.3.0, SVG Export Plug-In . SVG Version: 6.00 Build 0)  -->
<svg version="1.1" id="Layer_1" xmlns="http://www.w3.org/2000/svg" xmlns:xlink="http://www.w3.org/1999/xlink" x="0px" y="0px"
	 viewBox="0 0 25 25" style="enable-background:new 0 0 25 25;" xml:space="preserve">
<style type="text/css">
	.st0{fill:#FFFFFF;}
</style>
<g>
	<path class="st0" d="M17,2.5c0.3,1.5,1,2.7,2,3.7c1,1,2.2,1.6,3.7,1.9c-2,4.9-5.8,8-10.2,10.8c-0.5-0.5-0.9-0.9-1.3-1.4
		c-0.1-0.1-0.1-0.3-0.1-0.4c0-0.3,0.1-0.5,0.2-0.8c0.2-1.7-1-2.9-2.6-2.4c-0.8,0.2-1.2,0-1.7-0.5c-0.2-0.3-0.5-0.4-0.8-0.7
		C9,8.2,12.2,4.6,17,2.5z M15.7,12.6c1.8,0,3.3-1.5,3.3-3.3c0-1.8-1.4-3.2-3.2-3.2c-1.8,0-3.3,1.4-3.3,3.2
		C12.4,11.1,13.9,12.6,15.7,12.6z"/>
	<path class="st0" d="M23.1,6.8c-2.3-0.2-4.6-2.4-4.8-4.8c1.5-0.5,3-0.7,4.5-0.6c0.4,0,0.8,0.2,0.8,0.6C23.7,3.7,23.6,5.2,23.1,6.8z
		"/>
	<path class="st0" d="M10.2,15.9C10,16.4,9.8,17,9.5,17.4c-1.3,1.4-2.7,2.6-4.3,3.5c-0.4,0.2-0.7,0.4-1.1,0c-0.3-0.3-0.1-0.7,0.1-1
		c0.9-1.6,2.1-3,3.4-4.2c0.4-0.4,1-0.5,1.6-0.7C9.7,14.9,10.1,15.2,10.2,15.9z"/>
	<path class="st0" d="M7.3,8.6C7.2,8.9,7.1,9,7,9.2c-0.7,1.1-1.4,2.2-2.1,3.3c-0.2,0.3-0.3,0.4-0.7,0.4c-0.6,0-1.2,0.1-1.8,0.2
		c-0.4,0.1-0.7,0.1-1-0.3c-0.2-0.4,0-0.7,0.3-0.9c0.7-0.7,1.3-1.4,2-2C4.7,8.9,5.9,8.4,7.3,8.6z"/>
	<path class="st0" d="M12.3,20.5c1.3-0.8,2.6-1.7,4-2.6c0.3,0.8,0,1.6-0.3,2.3c-0.3,0.6-0.6,1.1-1.1,1.5c-0.5,0.6-1.1,1.2-1.8,1.7
		c-0.2,0.2-0.6,0.2-0.9,0.1c-0.1,0-0.3-0.5-0.3-0.7C12.1,22.1,12.2,21.3,12.3,20.5z"/>
	<path class="st0" d="M10.4,18.4c0.3,0.3,0.7,0.7,1.1,1.1c-0.7,0.4-1.4,0.8-2.1,1c-0.2,0.1-0.5-0.1-0.9-0.2
		C9.1,19.6,9.7,19,10.4,18.4z"/>
	<path class="st0" d="M4.9,16.6c-0.4-0.3-0.4-0.6-0.2-1c0.3-0.6,0.6-1.2,1-1.9c0.4,0.3,0.7,0.6,1,1C6.1,15.3,5.5,16,4.9,16.6z"/>
	<path class="st0" d="M17.7,9.4c0,1.1-0.9,1.9-1.9,1.9c-1.1,0-2-0.9-2-2c0-1.1,0.9-1.9,1.9-1.9C16.8,7.4,17.7,8.3,17.7,9.4z"/>
</g>
</svg>
