<?xml version="1.0" encoding="utf-8"?>
<!-- Generator: Adobe Illustrator 24.3.0, SVG Export Plug-In . SVG Version: 6.00 Build 0)  -->
<svg version="1.1" id="Layer_1" xmlns="http://www.w3.org/2000/svg" xmlns:xlink="http://www.w3.org/1999/xlink" x="0px" y="0px"
	 viewBox="0 0 25 25" style="enable-background:new 0 0 25 25;" xml:space="preserve">
<style type="text/css">
	.st0{fill:#FFFFFF;}
</style>
<g>
	<path class="st0" d="M11.1,24.1c-0.6-0.1-1.1-0.1-1.4-0.3c-1.2-0.7-1.4-2-0.5-3.1c0.6-0.6,1.3-1.1,2-1.6c0.8-0.6,1.2-1.3,1.3-2.2
		c0.1-0.4,0.1-0.9,0.2-1.3c0.1-0.9,0.9-1.6,1.8-1.7c1.4-0.1,2.3,0.8,3,1.8c0.7,1,0.7,2.1,0.1,3.1c-0.7,1.4-2,2.4-3.2,3.4
		c-0.6,0.5-1.2,1-1.8,1.4C12.2,23.8,11.6,23.9,11.1,24.1z"/>
	<path class="st0" d="M4.6,11.5c0.1-1.8,1-3.3,1.7-4.8C6.7,6,7.2,5.3,7.7,4.6c0.8-1.1,1.9-1.4,3.1-1.1c1.2,0.3,2.2,1,2.5,2.3
		c0.3,1-0.2,1.9-1.1,2.4c-0.3,0.2-0.6,0.3-1,0.4C10.1,9,9.4,9.9,9.1,11.1c-0.2,0.6-0.4,1.3-0.7,1.8c-0.5,0.9-1.1,1.2-2,1.1
		c-0.9-0.1-1.5-0.8-1.7-1.7C4.6,12,4.7,11.7,4.6,11.5z"/>
	<path class="st0" d="M16,11.5c-0.3,0.5-0.5,1-0.8,1.4c-0.2,0.3-0.7,0.5-1,0.2c-0.3-0.2-0.6-0.6-0.6-0.9c-0.1-0.6,0.2-1.1,0.7-1.5
		c0.3-0.3,0.7-0.5,1.1-0.2C15.5,10.8,15.7,11.1,16,11.5z"/>
	<path class="st0" d="M15.8,4.2c0.7,0,1.1,0.5,0.9,1.2c-0.2,0.8-0.8,1.2-1.5,1.3c-0.6,0.1-1.1-0.4-1.1-1C14.2,4.9,15,4.2,15.8,4.2z"
		/>
	<path class="st0" d="M17.8,12.4c0,0.5-0.7,1.3-1.2,1.3c-0.4,0-0.6-0.2-0.7-0.6c0-0.7,0.6-1.4,1.2-1.4C17.4,11.6,17.8,12,17.8,12.4z
		"/>
	<path class="st0" d="M14.9,3.5c0,0.6-0.5,1.1-1,1.1c-0.5,0-0.7-0.3-0.7-0.7c0-0.6,0.5-1.3,1-1.3C14.6,2.6,14.9,2.9,14.9,3.5z"/>
	<path class="st0" d="M13.4,2.1c0,0.7-0.5,1.3-1.1,1.3c-0.4,0-0.6-0.2-0.6-0.6c0-0.5,0.6-1.4,1.1-1.4C13.2,1.4,13.4,1.8,13.4,2.1z"
		/>
	<path class="st0" d="M20.4,14.8c0,0.8-1.1,1.4-1.7,1.1c-0.1-0.1-0.2-0.2-0.2-0.3c-0.1-0.6,0.8-1.5,1.5-1.2
		C20.1,14.5,20.3,14.7,20.4,14.8z"/>
	<path class="st0" d="M11.1,1c0.3,0.1,0.6,0.2,0.6,0.7c0,0.6-0.6,1.2-1,1.1c-0.5-0.1-0.6-0.5-0.6-0.9C10.1,1.4,10.5,0.9,11.1,1z"/>
	<path class="st0" d="M19.1,13.5c0,0.6-0.6,1.3-1.1,1.2c-0.4,0-0.7-0.2-0.6-0.7c0-0.5,0.6-1,1.1-1C18.9,13.1,19,13.3,19.1,13.5z"/>
	<path class="st0" d="M9.9,1.9c0,0.5-0.2,0.8-0.7,0.8C8.7,2.8,8.6,2.4,8.6,2c0-0.4,0.4-0.9,0.8-0.9C10,1.1,9.8,1.7,9.9,1.9z"/>
	<path class="st0" d="M19.2,17.7c-0.1-0.1-0.3-0.3-0.4-0.6c-0.1-0.3,0.5-0.8,1-0.7c0.2,0,0.5,0.3,0.6,0.5
		C20.4,17.3,19.8,17.7,19.2,17.7z"/>
</g>
</svg>
