<?xml version="1.0" encoding="utf-8"?>
<!-- Generator: Adobe Illustrator 24.3.0, SVG Export Plug-In . SVG Version: 6.00 Build 0)  -->
<svg version="1.1" id="Layer_1" xmlns="http://www.w3.org/2000/svg" xmlns:xlink="http://www.w3.org/1999/xlink" x="0px" y="0px"
	 viewBox="0 0 23.6 22.4" style="enable-background:new 0 0 23.6 22.4;" xml:space="preserve">
<style type="text/css">
	.st0{fill:#FFFFFF;}
</style>
<g id="Group_80" transform="translate(-862 -20.987)">
	<g id="Group_1" transform="translate(764.303 -408.579)">
		<path id="Path_16" class="st0" d="M97.7,440.2c0.1-0.4,0.4-0.7,0.7-0.9c3.4-3.1,6.8-6.2,10.2-9.3c0.5-0.5,1.2-0.5,1.7-0.1
			c0,0,0.1,0,0.1,0.1l2.1,2c0,0,0.1,0.1,0.2,0.1c0-0.2,0-0.3,0-0.4c0-0.3,0.3-0.6,0.6-0.7c0.1,0,0.2,0,0.3,0h4.4
			c0.6,0,0.9,0.2,0.9,0.9c0,1.9,0,3.7,0,5.6c0,0.1,0.1,0.3,0.2,0.4c0.6,0.6,1.3,1.1,1.9,1.7c0.5,0.5,0.5,1.2,0,1.7
			c-0.1,0.1-0.3,0.2-0.5,0.3c-0.2,0-0.3,0.1-0.5,0.1c-0.5,0-1,0-1.5,0v0.3c0,3.1,0,6.1,0,9.2c0.1,0.4-0.3,0.8-0.7,0.9
			c-0.1,0-0.1,0-0.2,0c-1.8,0-3.6,0-5.5,0c-0.4,0.1-0.8-0.2-0.9-0.7c0-0.1,0-0.1,0-0.2c0-1.8,0-3.6,0-5.4v-0.3h-3.4v0.3
			c0,1.8,0,3.6,0,5.5c0,0.6-0.3,0.8-0.8,0.8c-1.9,0-3.7,0-5.6,0c-0.4,0.1-0.7-0.2-0.8-0.6c0-0.1,0-0.2,0-0.2c0-3.1,0-6.2,0-9.2v-0.3
			h-0.8c-0.3,0-0.5,0-0.8,0c-0.6,0-1.1-0.3-1.2-0.9c0,0,0-0.1,0-0.1L97.7,440.2z M99.4,440.2L99.4,440.2l1.7,0
			c0.6,0,0.9,0.2,0.9,0.9c0,3.1,0,6.1,0,9.2v0.3h4.4v-0.3c0-1.8,0-3.6,0-5.4c0-0.6,0.2-0.8,0.8-0.8c1.5,0,3,0,4.5,0
			c0.6,0,0.8,0.2,0.8,0.8c0,1.8,0,3.6,0,5.4v0.3h4.4v-0.3c0-3.1,0-6.2,0-9.2c0-0.6,0.3-0.8,0.8-0.8c0.5,0,1,0,1.5,0
			c0.1,0,0.1,0,0.2,0c-0.6-0.5-1.2-1.1-1.7-1.6c-0.2-0.2-0.3-0.5-0.3-0.7c0-1.7,0-3.5,0-5.2v-0.3h-3.4c0,0.4,0,0.8,0,1.1
			c0,0.1,0,0.2,0,0.3c-0.1,0.4-0.5,0.6-0.9,0.4c-0.1,0-0.2-0.1-0.3-0.2c-0.7-0.6-1.3-1.2-2-1.8l-1.4-1.3L99.4,440.2z"/>
	</g>
</g>
</svg>
