<?xml version="1.0" encoding="utf-8"?>
<!-- Generator: Adobe Illustrator 24.3.0, SVG Export Plug-In . SVG Version: 6.00 Build 0)  -->
<svg version="1.1" id="Layer_1" xmlns="http://www.w3.org/2000/svg" xmlns:xlink="http://www.w3.org/1999/xlink" x="0px" y="0px"
	 viewBox="0 0 25 25" style="enable-background:new 0 0 25 25;" xml:space="preserve">
<style type="text/css">
	.st0{fill:#FFFFFF;}
</style>
<path d="M-396.8,434.7c0-13.3,0-26.6,0-40c0-10.9,4.7-15.6,15.4-15.6c26.4,0,52.9,0,79.3,0c10.1,0,15.2,5,15.1,14.9
	c0,27.1-0.1,54.3-0.2,81.4c0,10.6-5,15.6-15.6,15.6c-26.6,0.1-53.2,0.1-79.8,0c-8.8,0-14.2-5.5-14.2-14.4
	C-396.8,462.7-396.8,448.7-396.8,434.7z M-296,436.6c0.4-0.2,0.9-0.4,1.3-0.6c0-13.8,0-27.6,0-41.4c0-6-1.6-7.5-7.9-7.5
	c-26.1,0-52.3,0-78.4,0c-6.6,0-7.9,1.3-7.9,7.9c0,16.7,0,33.3,0,50c0,1,0.3,2,0.8,4.6c6.9-7.4,12.9-13.8,19.2-20.5
	c7.9,7.9,15.3,15.4,22.9,23c11.3-11,22.3-21.6,33.8-32.8C-306.6,425.2-301.3,430.9-296,436.6z"/>
<path d="M-328.5,435c0.1,7.3-6.1,13.5-13.3,13.5c-7.2,0-13.4-6.3-13.3-13.5c0.1-7.1,6-13,13.1-13.2
	C-334.8,421.6-328.6,427.7-328.5,435z"/>
<path class="st0" d="M1.3,12.5c0-2.8,0-5.6,0-8.5c0-1.7,0.9-2.7,2.6-2.7c5.7,0,11.4,0,17,0c1.7,0,2.6,1,2.6,2.7c0,5.7,0,11.4,0,17.1
	c0,1.6-0.9,2.6-2.6,2.6c-5.7,0-11.4,0-17.1,0c-1.7,0-2.6-1-2.6-2.7C1.3,18.1,1.3,15.3,1.3,12.5z M10.6,12.4c0,1.9,0,3.9,0,5.8
	c0,1.4,0.4,1.8,1.8,1.8c1.5,0,2-0.4,2-1.7c0-3.8,0-7.7,0-11.5c0-1.4-0.5-1.8-2-1.7c-1.4,0-1.8,0.4-1.8,1.8
	C10.6,8.7,10.6,10.5,10.6,12.4z M4.4,14.3c0,1.3,0,2.6,0,3.9c0,1.4,0.5,1.8,1.9,1.8c1.4,0,1.8-0.4,1.8-1.8c0-2.6,0-5.2,0-7.7
	c0-1.3-0.5-1.7-1.9-1.7c-1.4,0-1.9,0.4-1.9,1.7C4.4,11.8,4.4,13,4.4,14.3z M16.8,15.6c0,0.9,0,1.9,0,2.8c0,1.2,0.5,1.6,1.7,1.6
	c1.5,0,2.1-0.3,2.1-1.5c0.1-1.9,0.1-3.9,0-5.8c0-1.2-0.6-1.5-2.1-1.5c-1.1,0-1.6,0.4-1.6,1.5C16.8,13.7,16.8,14.6,16.8,15.6z"/>
</svg>
