<?xml version="1.0" encoding="utf-8"?>
<!-- Generator: Adobe Illustrator 24.3.0, SVG Export Plug-In . SVG Version: 6.00 Build 0)  -->
<svg version="1.1" id="Layer_1" xmlns="http://www.w3.org/2000/svg" xmlns:xlink="http://www.w3.org/1999/xlink" x="0px" y="0px"
	 viewBox="0 0 25 25" style="enable-background:new 0 0 25 25;" xml:space="preserve">
<style type="text/css">
	.st0{fill:#FFFFFF;}
</style>
<path d="M-396.8,434.7c0-13.3,0-26.6,0-40c0-10.9,4.7-15.6,15.4-15.6c26.4,0,52.9,0,79.3,0c10.1,0,15.2,5,15.1,14.9
	c0,27.1-0.1,54.3-0.2,81.4c0,10.6-5,15.6-15.6,15.6c-26.6,0.1-53.2,0.1-79.8,0c-8.8,0-14.2-5.5-14.2-14.4
	C-396.8,462.7-396.8,448.7-396.8,434.7z M-296,436.6c0.4-0.2,0.9-0.4,1.3-0.6c0-13.8,0-27.6,0-41.4c0-6-1.6-7.5-7.9-7.5
	c-26.1,0-52.3,0-78.4,0c-6.6,0-7.9,1.3-7.9,7.9c0,16.7,0,33.3,0,50c0,1,0.3,2,0.8,4.6c6.9-7.4,12.9-13.8,19.2-20.5
	c7.9,7.9,15.3,15.4,22.9,23c11.3-11,22.3-21.6,33.8-32.8C-306.6,425.2-301.3,430.9-296,436.6z"/>
<path d="M-328.5,435c0.1,7.3-6.1,13.5-13.3,13.5c-7.2,0-13.4-6.3-13.3-13.5c0.1-7.1,6-13,13.1-13.2
	C-334.8,421.6-328.6,427.7-328.5,435z"/>
<g>
	<path class="st0" d="M15.2,7.3c-0.3,0.4-0.5,0.8-0.8,1.1c0.7,1,0.4,1.7-0.9,2.6c-1.1,0.7-2.1,1.6-3.6,0.9c-0.2-0.1-0.6,0.1-0.9,0.2
		c-0.7-1.4-0.6-1.7,0.8-2c1-0.2,1.9-0.5,2.8-0.7c-0.3-0.9-0.6-1.8-0.8-2.8c0.4-0.3,0.8-0.5,1.2-0.7c-1.1-0.6-1.5-0.5-1.8,0.5
		C11.2,6.6,11,7,10.9,7C9.8,7.2,9.5,8,9,8.7C8.8,9,8.2,9,7.8,9.2c0-0.4-0.2-0.8-0.1-1.2c0.1-0.8,0.5-1.5,0.5-2.3
		c0.1-1-0.2-1.2-1.1-0.8C6.8,4.9,6.6,5,6.2,5.2c0.2-1.4,0.5-2.7,0.7-4.3c0.3,0.4,0.7,0.7,0.8,1.1c0.8,2.3,2.6,2.7,4.8,3
		c2.4,0.3,3.9-0.9,5.4-2.5c0.3-0.4,0.9-0.7,1.3-0.7c0.3,0,0.8,0.7,0.8,1.1c0.1,1.3,0.1,2.6,0.1,3.9c0,0.7,0,1.5,0.1,2.2
		c0.2,1,0.5,2,0.7,2.9c0,0.2,0.1,0.4,0,0.5c-0.9,1.1-0.3,1.8,0.4,2.7c0.8,1.1,1,2.7,1.4,4.1c0.2,0.8-0.3,1.4-1,1.8
		c-1.2,0.6-2.4,1.3-3.6,1.9c-0.2,0.1-0.8-0.1-0.9-0.4c-0.7-1.4-0.6-2.7,0.4-3.9c0.6-0.7,1.1-1.5,1.1-2.6c0-0.6,0.3-1.3,0.7-1.8
		c0.5-0.8,0.3-1.3-0.2-2c-0.5-0.7-0.8-1.5-1.2-2.2c-0.2-0.3-0.3-0.8-0.6-1C16.7,8.4,16,7.9,15.2,7.3z"/>
	<path class="st0" d="M7.3,18.6c-0.9,0.1-1.7,0.1-2.6,0.2c-1.2,0.1-1.5-1-2-1.6c-0.9-1.3-0.3-2.7-0.1-4.1c0.1-0.6,1.8-0.9,2.7-0.6
		c0.8,0.3,1.2,0.9,1,1.8c-0.1,0.6-0.2,1.3-0.1,1.9c0.2,0.9,0.8,1.1,1.6,0.9c0.2,0,0.3-0.1,0.5-0.1c0.5,0,1,0,1.5,0.1
		c-0.3,0.5-0.5,1-0.9,1.3c-0.4,0.3-1.1,0.3-1.6,0.5C7.3,18.8,7.3,18.7,7.3,18.6z"/>
	<path class="st0" d="M5.3,23.1c2.3-0.3,4.6-0.6,6.8-0.8c0,0.5-1.2,1.4-2.6,1.7C7.8,24.4,5.8,24,5.3,23.1z"/>
	<path class="st0" d="M5.5,8.5c0.1,0.2,0.6,0.8,0.5,1c-0.3,0.5-0.9,0.9-1.4,1.3c0,0-0.4-0.4-0.6-0.6C4.6,9.7,3.5,8.2,5.5,8.5z"/>
</g>
</svg>
