<?xml version="1.0" encoding="utf-8"?>
<!-- Generator: Adobe Illustrator 24.3.0, SVG Export Plug-In . SVG Version: 6.00 Build 0)  -->
<svg version="1.1" id="Layer_1" xmlns="http://www.w3.org/2000/svg" xmlns:xlink="http://www.w3.org/1999/xlink" x="0px" y="0px"
	 viewBox="0 0 25 25" style="enable-background:new 0 0 25 25;" xml:space="preserve">
<style type="text/css">
	.st0{fill:#FFFFFF;}
</style>
<g>
	<path class="st0" d="M1.1,12.4c0-2.8,0-5.5,0-8.3c0-2.3,1-3.2,3.2-3.2c5.5,0,11,0,16.5,0c2.1,0,3.1,1,3.1,3.1c0,5.6,0,11.3,0,16.9
		c0,2.2-1,3.2-3.2,3.2c-5.5,0-11,0-16.6,0c-1.8,0-2.9-1.1-2.9-3C1.1,18.2,1.1,15.3,1.1,12.4z M22,12.8c0.1,0,0.2-0.1,0.3-0.1
		c0-2.9,0-5.7,0-8.6c0-1.3-0.3-1.6-1.6-1.6c-5.4,0-10.8,0-16.3,0C3,2.5,2.7,2.8,2.7,4.2c0,3.5,0,6.9,0,10.4c0,0.2,0.1,0.4,0.2,1
		c1.4-1.5,2.7-2.9,4-4.3c1.6,1.6,3.2,3.2,4.7,4.8c2.3-2.3,4.6-4.5,7-6.8C19.8,10.5,20.9,11.6,22,12.8z"/>
	<path class="st0" d="M14.4,7.6c0,1.5-1.3,2.8-2.8,2.8c-1.5,0-2.8-1.3-2.8-2.8c0-1.5,1.2-2.7,2.7-2.7C13.1,4.8,14.3,6.1,14.4,7.6z"
		/>
</g>
<path d="M-396.8,434.7c0-13.3,0-26.6,0-40c0-10.9,4.7-15.6,15.4-15.6c26.4,0,52.9,0,79.3,0c10.1,0,15.2,5,15.1,14.9
	c0,27.1-0.1,54.3-0.2,81.4c0,10.6-5,15.6-15.6,15.6c-26.6,0.1-53.2,0.1-79.8,0c-8.8,0-14.2-5.5-14.2-14.4
	C-396.8,462.7-396.8,448.7-396.8,434.7z M-296,436.6c0.4-0.2,0.9-0.4,1.3-0.6c0-13.8,0-27.6,0-41.4c0-6-1.6-7.5-7.9-7.5
	c-26.1,0-52.3,0-78.4,0c-6.6,0-7.9,1.3-7.9,7.9c0,16.7,0,33.3,0,50c0,1,0.3,2,0.8,4.6c6.9-7.4,12.9-13.8,19.2-20.5
	c7.9,7.9,15.3,15.4,22.9,23c11.3-11,22.3-21.6,33.8-32.8C-306.6,425.2-301.3,430.9-296,436.6z"/>
<path d="M-328.5,435c0.1,7.3-6.1,13.5-13.3,13.5c-7.2,0-13.4-6.3-13.3-13.5c0.1-7.1,6-13,13.1-13.2
	C-334.8,421.6-328.6,427.7-328.5,435z"/>
</svg>
