<?xml version="1.0" encoding="utf-8"?>
<!-- Generator: Adobe Illustrator 24.3.0, SVG Export Plug-In . SVG Version: 6.00 Build 0)  -->
<svg version="1.1" id="Layer_1" xmlns="http://www.w3.org/2000/svg" xmlns:xlink="http://www.w3.org/1999/xlink" x="0px" y="0px"
	 viewBox="0 0 22 22" style="enable-background:new 0 0 22 22;" xml:space="preserve">
<style type="text/css">
	.st0{fill:#FFFFFF;}
</style>
<g>
	<path class="st0" d="M20,4.1c-2.5,2.5-4.7,4.7-7,7c-2.2,2.2-1.8,2.2-4,0c-2.3-2.3-4.5-4.5-7-7C8.1,4.1,13.9,4.1,20,4.1z"/>
	<path class="st0" d="M19.5,17.9c-5.7,0-11.5,0-17.2,0c1.9-2,3.8-4,5.6-5.8c1,0.6,2,1.8,3,1.8c1,0,2-1.1,3.1-1.7
		C15.8,13.9,17.7,15.9,19.5,17.9z"/>
	<path class="st0" d="M20.9,5.6c0,3.6,0,7.3,0,11c-1.9-2-3.8-4-5.3-5.5C17.2,9.4,19.1,7.4,20.9,5.6z"/>
	<path class="st0" d="M6.8,11.1c-1.6,1.7-3.4,3.6-5.3,5.5c-0.1,0.1-0.2,0.1-0.4,0.1c0-3.8,0-7.6,0-11.5C3.1,7.3,5,9.2,6.8,11.1z"/>
</g>
</svg>
