<?xml version="1.0" encoding="utf-8"?>
<!-- Generator: Adobe Illustrator 24.3.0, SVG Export Plug-In . SVG Version: 6.00 Build 0)  -->
<svg version="1.1" id="Layer_1" xmlns="http://www.w3.org/2000/svg" xmlns:xlink="http://www.w3.org/1999/xlink" x="0px" y="0px"
	 viewBox="0 0 22 22" style="enable-background:new 0 0 22 22;" xml:space="preserve">
<style type="text/css">
	.st0{fill:#FFFFFF;}
</style>
<g>
	<path class="st0" d="M20.7,3.9c-0.8,0.7-1.3,1.2-1.9,1.7c2,0.6,2.8,5.7,1.6,9c-2,5.3-8.3,7.8-13.6,5.4c-5.1-2.3-7.3-8.7-4.6-13.7
		C5,1.2,11.6-0.4,16.6,2.8C17,2.4,17.4,2,18,1.5C18,3.2,18.8,3.9,20.7,3.9z M11,18.8c4.4,0,7.9-3.5,7.9-7.9c0-4.1-3.6-7.7-8-7.7
		C6.6,3.2,3.1,6.7,3.1,11C3.1,15.4,6.5,18.8,11,18.8z"/>
	<path class="st0" d="M14.6,6.4c0.3-0.3,0.6-0.6,0.9-0.9c0.3,0.2,0.6,0.5,0.9,0.7c-0.3,0.3-0.5,0.6-0.9,1c1.2,1.4,1.5,3.1,1.1,4.9
		c-0.3,1.3-1,2.5-2.1,3.3c-2.4,1.8-5.7,1.6-7.8-0.6c-2.1-2.1-2.2-5.3-0.2-7.7C8.4,5,11.6,4.6,14.6,6.4z M13.1,7.9
		c-2.1-1.1-4.1-0.7-5.2,1c-1.1,1.6-0.8,3.6,0.6,4.8c1.4,1.3,3.5,1.3,5,0c1.4-1.3,1.6-3.2,0.4-4.9c-0.7,0.7-1.4,1.2-1.3,2.4
		c0.1,0.9-0.8,1.5-1.7,1.4C10,12.6,9.4,12,9.3,11.1c-0.1-0.9,0.4-1.7,1.3-1.7C11.9,9.6,12.4,8.7,13.1,7.9z"/>
</g>
</svg>
