<?xml version="1.0" encoding="utf-8"?>
<!-- Generator: Adobe Illustrator 24.3.0, SVG Export Plug-In . SVG Version: 6.00 Build 0)  -->
<svg version="1.1" id="Layer_1" xmlns="http://www.w3.org/2000/svg" xmlns:xlink="http://www.w3.org/1999/xlink" x="0px" y="0px"
	 viewBox="0 0 22 22" style="enable-background:new 0 0 22 22;" xml:space="preserve">
<style type="text/css">
	.st0{fill:#FFFFFF;}
</style>
<g>
	<path class="st0" d="M9.3,3.5C9,2.5,9,1.6,9.9,1.2c0.6-0.3,1.5-0.3,2-0.1c0.9,0.4,1,1.4,0.7,2.3C13,3.7,13.3,3.8,13.6,4
		c1.6,0.9,2.6,2.2,2.9,4.1c0.2,1.7,0.4,3.4,0.6,5.2c0.1,0.5,0.2,0.9,0.3,1.5c-4.2,0-8.5,0-12.7,0c0.2-1.7,0.4-3.5,0.6-5.2
		C5.5,6.3,6.3,5.1,9.3,3.5z"/>
	<path class="st0" d="M10.9,18.5c-2.4,0-4.7,0-7.1,0c-0.9,0-1.6-0.2-1.7-1.2c-0.1-0.8,0.6-1.4,1.6-1.4c4.8,0,9.6,0,14.4,0
		c1.2,0,1.7,0.4,1.7,1.3c0,0.8-0.6,1.3-1.7,1.3C15.8,18.5,13.3,18.5,10.9,18.5z"/>
	<path class="st0" d="M13.4,19.8c-1.6,1.7-3.3,1.7-4.8,0C10.2,19.8,11.8,19.8,13.4,19.8z"/>
</g>
</svg>
