<?xml version="1.0" encoding="utf-8"?>
<!-- Generator: Adobe Illustrator 24.3.0, SVG Export Plug-In . SVG Version: 6.00 Build 0)  -->
<svg version="1.1" id="Layer_1" xmlns="http://www.w3.org/2000/svg" xmlns:xlink="http://www.w3.org/1999/xlink" x="0px" y="0px"
	 viewBox="0 0 22 22" style="enable-background:new 0 0 22 22;" xml:space="preserve">
<style type="text/css">
	.st0{fill:#FFFFFF;}
</style>
<g>
	<path class="st0" d="M18.7,11.2c-0.8-0.2-1.6-0.3-2.4-0.5c0.1-0.9,0.3-1.9,0.4-2.9c0.1-0.6,0.1-1.2,0.1-1.8c0-0.7-0.2-0.9-0.8-1.1
		c-1.9-0.5-3.7-1.1-5.6-1.7c-0.2-0.1-0.5-0.1-0.7,0c-2,0.6-4,1.2-5.9,1.7C3.5,5.1,3.3,5.3,3.3,5.7c0.1,1,0.2,2,0.3,3
		c0.2,1.9,0.7,3.8,1.4,5.5c0.6,1.4,1.4,2.7,2.7,3.6c1.2,0.8,2.4,1.1,3.8,0.6c0,0,0.1,0,0,0c0.6,0.7,1.1,1.3,1.6,1.9
		c-1.7,1-3.6,1.3-5.5,0.4c-1.7-0.8-3-2.1-4-3.6c-1.2-2-1.9-4.1-2.3-6.4C1,8.6,0.9,6.3,0.8,4c0-0.6,0.1-0.7,0.7-0.9
		C4.3,2.3,7,1.5,9.8,0.7c0.2-0.1,0.5-0.1,0.7,0c2.7,0.8,5.5,1.6,8.2,2.4c0.5,0.2,0.7,0.4,0.7,0.9C19.4,6.4,19.2,8.7,18.7,11.2
		C18.7,11.1,18.7,11.1,18.7,11.2z"/>
	<path class="st0" d="M16.5,11.5c2.6,0,4.7,2.1,4.7,4.7c0,2.6-2.1,4.7-4.7,4.7c-2.6,0-4.7-2.1-4.7-4.7
		C11.8,13.6,13.9,11.5,16.5,11.5z M19,16.7c0-0.4,0-0.7,0-1.1c-0.7,0-1.3,0-2,0c0-0.7,0-1.3,0-2c-0.4,0-0.7,0-1.1,0c0,0.7,0,1.3,0,2
		c-0.7,0-1.3,0-2,0c0,0.4,0,0.7,0,1.1c0.7,0,1.3,0,2,0c0,0.7,0,1.3,0,2c0.4,0,0.7,0,1.1,0c0-0.7,0-1.3,0-2
		C17.7,16.7,18.4,16.7,19,16.7z"/>
	<path class="st0" d="M10.2,10.5c0-0.1-0.1-0.2-0.1-0.3c0-2.3,0-4.5,0-6.8c0-0.1,0-0.1,0-0.2c0.4,0.1,0.8,0.2,1.2,0.4
		c1.6,0.5,3.2,1,4.8,1.4c0.3,0.1,0.5,0.3,0.5,0.6c-0.1,1.5-0.3,3-0.4,4.5c0,0.3-0.1,0.3-0.4,0.3C14,10.5,12.1,10.5,10.2,10.5
		L10.2,10.5z"/>
	<path class="st0" d="M10.2,10.5c0,0.1-0.1,0.2-0.1,0.4c0,2.4,0,4.9,0,7.3c0,0.1,0,0.3,0,0.4c-1-0.1-1.8-0.5-2.6-1.1
		c-0.9-0.7-1.5-1.6-2-2.6c-0.7-1.4-1.1-2.8-1.4-4.4c0,0,0.1,0,0.1,0C6.2,10.5,8.2,10.5,10.2,10.5C10.2,10.5,10.2,10.5,10.2,10.5z"/>
</g>
</svg>
