<?xml version="1.0" encoding="utf-8"?>
<!-- Generator: Adobe Illustrator 24.3.0, SVG Export Plug-In . SVG Version: 6.00 Build 0)  -->
<svg version="1.1" id="Layer_1" xmlns="http://www.w3.org/2000/svg" xmlns:xlink="http://www.w3.org/1999/xlink" x="0px" y="0px"
	 viewBox="0 0 22 22" style="enable-background:new 0 0 22 22;" xml:space="preserve">
<style type="text/css">
	.st0{fill:#FFFFFF;}
</style>
<path class="st0" d="M20.4,12.1c-1.3,0-2.5,0-3.8,0c-0.1,0-0.3,0-0.5,0c0.1-0.9,0.2-1.8,0.3-2.8c0.2,0,0.3,0,0.5,0
	c1.2,0,2.4,0,3.6,0c0.3,0,0.6,0,0.8-0.4V6c-0.3-0.4-0.7-0.4-1-0.4c-0.9,0-1.9,0-2.8,0c-0.1,0-0.2,0-0.4,0c0.1-0.6,0.2-1.3,0.3-1.9
	c0.1-0.8,0.3-1.5,0.4-2.3c0.1-0.6-0.1-0.9-0.7-0.9c-0.7,0-1.5,0-2.2,0c-0.4,0-0.6,0.2-0.7,0.6c-0.3,1.4-0.5,2.8-0.8,4.2
	c0,0.1-0.2,0.3-0.2,0.3c-0.8,0-1.7,0-2.6,0C10.7,5,10.9,4.5,11,3.9c0.1-0.8,0.3-1.6,0.4-2.4c0.1-0.5-0.2-0.8-0.7-0.8
	c-0.8,0-1.5,0-2.3,0c-0.5,0-0.7,0.1-0.8,0.7C7.5,2,7.4,2.8,7.2,3.5C7.1,4.1,7,4.7,6.9,5.3c0,0.3-0.1,0.3-0.4,0.3c-1.7,0-3.4,0-5,0
	C1.2,5.7,0.9,5.7,0.7,6v2.9c0.2,0.4,0.6,0.4,0.9,0.4c1.4,0,2.8,0,4.2,0c0.1,0,0.2,0,0.4,0C6.1,9.8,6,10.2,6,10.6
	c-0.1,0.4-0.2,0.8-0.2,1.2c0,0.3-0.2,0.3-0.4,0.3c-1.3,0-2.5,0-3.8,0c-0.3,0-0.6,0-0.9,0.4v2.8c0.3,0.4,0.6,0.4,0.9,0.4c1,0,2,0,3,0
	c0.1,0,0.2,0,0.4,0c-0.2,1.2-0.4,2.3-0.6,3.4c-0.1,0.4-0.2,0.8-0.2,1.2c-0.1,0.6,0.2,0.8,0.7,0.8c0.7,0,1.5,0,2.2,0
	c0.5,0,0.7-0.2,0.7-0.6c0.3-1.5,0.5-3,0.8-4.5c0.1-0.3,0.2-0.4,0.5-0.4c0.7,0,1.4,0,2,0c0.1,0,0.2,0,0.3,0c-0.2,1-0.3,1.9-0.5,2.8
	c-0.1,0.6-0.2,1.2-0.3,1.8c-0.1,0.5,0.2,0.9,0.7,0.9c0.8,0,1.6,0,2.3,0c0.4,0,0.6-0.2,0.6-0.5c0.3-1.6,0.6-3.1,0.9-4.7
	c0-0.3,0.1-0.3,0.4-0.3c1.6,0,3.2,0,4.8,0c0.3,0,0.6,0,0.9-0.3v-3C21.1,12.1,20.8,12.1,20.4,12.1z M12.6,10.1
	c-0.1,0.6-0.2,1.1-0.3,1.7c0,0.1-0.1,0.2-0.2,0.2c-0.8,0-1.7,0-2.6,0c0.2-0.9,0.4-1.7,0.5-2.6c0-0.1,0.1-0.2,0.2-0.2
	c0.8,0,1.7,0,2.6,0C12.7,9.6,12.6,9.9,12.6,10.1z"/>
</svg>
