<?xml version="1.0" encoding="utf-8"?>
<!-- Generator: Adobe Illustrator 24.3.0, SVG Export Plug-In . SVG Version: 6.00 Build 0)  -->
<svg version="1.1" id="Layer_1" xmlns="http://www.w3.org/2000/svg" xmlns:xlink="http://www.w3.org/1999/xlink" x="0px" y="0px"
	 viewBox="0 0 22 22" style="enable-background:new 0 0 22 22;" xml:space="preserve">
<style type="text/css">
	.st0{fill:#FFFFFF;}
</style>
<g>
	<path class="st0" d="M15.5,5.5c-0.7,0.4-1.4,0.8-2.1,1.2C12,7.5,10.6,8.3,9.2,9.1C9.1,9.2,9,9.3,8.8,9.2c-2-1.2-4.1-2.4-6.1-3.6
		c0,0-0.1,0-0.1-0.1c0.1-0.1,0.1-0.1,0.2-0.1c2-1.2,4.1-2.3,6.1-3.5c0.1-0.1,0.3-0.1,0.4,0c2.1,1.2,4.1,2.4,6.2,3.6
		C15.4,5.4,15.4,5.4,15.5,5.5z"/>
	<path class="st0" d="M1.1,7.8C1.2,7.8,1.3,7.9,1.4,8c2,1.1,4,2.3,6,3.4c0.2,0.1,0.3,0.2,0.3,0.4c0,2.3,0,4.6,0,7c0,0.1,0,0.1,0,0.2
		c-0.1-0.1-0.2-0.1-0.3-0.1c-2-1.2-4-2.3-6.1-3.5C1.1,15.2,1,15.1,1,14.9c0-2.3,0-4.6,0-7C1,7.9,1.1,7.9,1.1,7.8z"/>
	<path class="st0" d="M21,16.2c0,2.2-1.8,4-4,4c-2.3,0-4-1.8-4-4c0-2.2,1.8-4,4.1-4C19.2,12.2,21,14,21,16.2z M16.5,15.7
		c-0.6,0-1.1,0-1.6,0c0,0.3,0,0.6,0,0.9c0.5,0,1.1,0,1.6,0c0,0.6,0,1.1,0,1.6c0.3,0,0.6,0,0.9,0c0-0.6,0-1.1,0-1.7
		c0.6,0,1.1,0,1.7,0c0-0.3,0-0.6,0-0.9c-0.6,0-1.1,0-1.7,0c0-0.6,0-1.1,0-1.6c-0.3,0-0.6,0-0.9,0C16.5,14.6,16.5,15.1,16.5,15.7z"/>
	<path class="st0" d="M16.8,7.8c0,0.3,0,0.6,0,0.9c0,0.8,0,1.7,0,2.5c0,0.2,0,0.3-0.3,0.3c-3.1,0.1-5.2,3.1-4.2,6
		c0,0.1,0,0.3-0.1,0.3c-0.6,0.4-1.3,0.8-2,1.2c0-0.2,0-0.3,0-0.4c0-2.2,0-4.4,0-6.7c0-0.3,0.1-0.5,0.3-0.6c2-1.1,3.9-2.2,5.9-3.4
		C16.6,7.9,16.6,7.9,16.8,7.8z"/>
</g>
</svg>
