<?xml version="1.0" encoding="utf-8"?>
<!-- Generator: Adobe Illustrator 24.3.0, SVG Export Plug-In . SVG Version: 6.00 Build 0)  -->
<svg version="1.1" id="Layer_1" xmlns="http://www.w3.org/2000/svg" xmlns:xlink="http://www.w3.org/1999/xlink" x="0px" y="0px"
	 viewBox="0 0 22 22" style="enable-background:new 0 0 22 22;" xml:space="preserve">
<style type="text/css">
	.st0{fill:#FFFFFF;}
</style>
<path class="st0" d="M18.5,4.1C13,4.4,7.5,4.6,2,4.9c0,0.1-0.1,0.3-0.1,0.4c0.5,0.1,1,0.3,1.5,0.3c4.8,0,9.7,0,14.5,0
	c2.2,0,3.1,0.9,3.1,3.1c0,3,0,6,0,9.1c0,2.3-0.8,3.1-3.1,3.1c-4.6,0-9.1,0-13.7,0c-2.5,0-3.2-0.8-3.2-3.2c0-3.9,0-7.9,0-11.8
	C1,4,1.4,3.6,3.2,3.3c4.2-0.7,8.5-1.4,12.7-2.1C18.1,0.8,19,1.7,18.5,4.1z M17.9,14.8c0.9-0.1,1.5-0.6,1.4-1.5
	c0-0.9-0.6-1.5-1.5-1.5c-0.9,0-1.5,0.6-1.5,1.5C16.4,14.2,17,14.7,17.9,14.8z"/>
</svg>
